<svg width="24" height="24" viewBox="0 0 24 24" fill="none" xmlns="http://www.w3.org/2000/svg" xmlns:xlink="http://www.w3.org/1999/xlink">
<path d="M16 12C16 14.2091 14.2091 16 12 16C9.79086 16 8 14.2091 8 12C8 9.79086 9.79086 8 12 8C14.2091 8 16 9.79086 16 12Z" fill="#1A1A1A"/>
<path d="M12 0.5C13.0603 0.5 13.9637 1.16114 14.3271 2.09277L14.3291 2.0918C15.3961 4.82798 16.5131 5.47269 19.416 5.02832L19.4131 5.03125C19.5376 5.01215 19.665 5 19.7949 5C21.1755 5.00013 22.2949 6.11937 22.2949 7.5C22.2947 8.88041 21.1754 9.99987 19.7949 10C18.7344 10 17.8301 9.33824 17.4668 8.40625L17.4658 8.4082C16.3988 5.67193 15.2811 5.02722 12.3779 5.47168L12.3799 5.46777C12.2558 5.48671 12.1293 5.5 12 5.5C10.6193 5.5 9.5 4.38071 9.5 3C9.5 1.61929 10.6193 0.5 12 0.5Z" fill="#1A1A1A"/>
<path d="M19.7949 14C21.1755 14.0001 22.2949 15.1203 22.2949 16.501C22.2947 17.8814 21.1754 19.0008 19.7949 19.001C19.665 19.001 19.5377 18.9869 19.4131 18.9678L19.416 18.9717C16.5132 18.5274 15.3961 19.1722 14.3291 21.9082L14.3271 21.9062C13.9639 22.8383 13.0606 23.5 12 23.5C10.6193 23.5 9.5 22.3807 9.5 21C9.5 19.6193 10.6193 18.5 12 18.5C12.129 18.5 12.2552 18.5124 12.3789 18.5312L12.3779 18.5293C15.281 18.9737 16.3988 18.3288 17.4658 15.5928C17.829 14.6606 18.7342 14 19.7949 14Z" fill="#1A1A1A"/>
<path d="M4.20605 4.99902C5.58677 4.99902 6.70605 6.11929 6.70605 7.5C6.70594 8.09153 6.49977 8.63445 6.15625 9.0625C4.31974 11.3549 4.3207 12.6451 6.15723 14.9375C6.50084 15.3657 6.70605 15.9093 6.70605 16.501C6.70579 17.8815 5.5866 19.001 4.20605 19.001C2.82556 19.0009 1.70632 17.8814 1.70605 16.501C1.70605 15.9091 1.91305 15.3657 2.25684 14.9375H2.25488C4.09141 12.6451 4.09141 11.3549 2.25488 9.0625H2.25684C1.91314 8.6344 1.70617 8.09169 1.70605 7.5C1.70605 6.11933 2.8254 4.99909 4.20605 4.99902Z" fill="#1A1A1A"/>
<defs>
<g id="stroke0_1544_54" data-figma-scatter-ref="stroke0_1544_54_ref" data-figma-scatter="f0.51_w0.06_aj180_sj0.65_r0_s0_sw0.25">
</g>
<path id="stroke0_1544_54_ref" d="M16 12C16 14.2091 14.2091 16 12 16C9.79086 16 8 14.2091 8 12C8 9.79086 9.79086 8 12 8C14.2091 8 16 9.79086 16 12ZM12 0.5C13.0603 0.5 13.9637 1.16114 14.3271 2.09277L14.3291 2.0918C15.3961 4.82798 16.5131 5.47269 19.416 5.02832L19.4131 5.03125C19.5376 5.01215 19.665 5 19.7949 5C21.1755 5.00013 22.2949 6.11937 22.2949 7.5C22.2947 8.88041 21.1754 9.99987 19.7949 10C18.7344 10 17.8301 9.33824 17.4668 8.40625L17.4658 8.4082C16.3988 5.67193 15.2811 5.02722 12.3779 5.47168L12.3799 5.46777C12.2558 5.48671 12.1293 5.5 12 5.5C10.6193 5.5 9.5 4.38071 9.5 3C9.5 1.61929 10.6193 0.5 12 0.5ZM19.7949 14C21.1755 14.0001 22.2949 15.1203 22.2949 16.501C22.2947 17.8814 21.1754 19.0008 19.7949 19.001C19.665 19.001 19.5377 18.9869 19.4131 18.9678L19.416 18.9717C16.5132 18.5274 15.3961 19.1722 14.3291 21.9082L14.3271 21.9062C13.9639 22.8383 13.0606 23.5 12 23.5C10.6193 23.5 9.5 22.3807 9.5 21C9.5 19.6193 10.6193 18.5 12 18.5C12.129 18.5 12.2552 18.5124 12.3789 18.5312L12.3779 18.5293C15.281 18.9737 16.3988 18.3288 17.4658 15.5928C17.829 14.6606 18.7342 14 19.7949 14ZM4.20605 4.99902C5.58677 4.99902 6.70605 6.11929 6.70605 7.5C6.70594 8.09153 6.49977 8.63445 6.15625 9.0625C4.31974 11.3549 4.3207 12.6451 6.15723 14.9375C6.50084 15.3657 6.70605 15.9093 6.70605 16.501C6.70579 17.8815 5.5866 19.001 4.20605 19.001C2.82556 19.0009 1.70632 17.8814 1.70605 16.501C1.70605 15.9091 1.91305 15.3657 2.25684 14.9375H2.25488C4.09141 12.6451 4.09141 11.3549 2.25488 9.0625H2.25684C1.91314 8.6344 1.70617 8.09169 1.70605 7.5C1.70605 6.11933 2.8254 4.99909 4.20605 4.99902Z"/>
</defs>
</svg>
