<svg width="24" height="24" viewBox="0 0 24 24" fill="none" xmlns="http://www.w3.org/2000/svg" xmlns:xlink="http://www.w3.org/1999/xlink">
<circle cx="12" cy="12" r="4" fill="#1A1A1A"/>
<use xlink:href="#stroke0_1538_2032" transform="translate(15.8526 11.9498) scale(0.000665827) rotate(-26.8921)"/>
<use xlink:href="#stroke0_1538_2032" transform="translate(15.7729 12.0939) scale(0.000989334) rotate(-23.3045)"/>
<use xlink:href="#stroke0_1538_2032" transform="translate(16.125 12.2375) scale(0.000720702) rotate(95.5492)"/>
<use xlink:href="#stroke0_1538_2032" transform="translate(16.0064 12.5856) scale(0.000474645) rotate(-155.028)"/>
<use xlink:href="#stroke0_1538_2032" transform="translate(16.0057 12.5162) scale(0.000485144) rotate(65.5759)"/>
<use xlink:href="#stroke0_1538_2032" transform="translate(15.7305 12.8817) scale(0.000911282) rotate(-70.0855)"/>
<use xlink:href="#stroke0_1538_2032" transform="translate(15.8433 12.7791) scale(0.000776383) rotate(29.6869)"/>
<use xlink:href="#stroke0_1538_2032" transform="translate(15.6818 13.2816) scale(0.000962457) rotate(-87.75)"/>
<use xlink:href="#stroke0_1538_2032" transform="translate(15.6596 13.4539) scale(0.00087731) rotate(-97.3757)"/>
<use xlink:href="#stroke0_1538_2032" transform="translate(15.7704 13.2424) scale(0.000961141) rotate(55.2991)"/>
<use xlink:href="#stroke0_1538_2032" transform="translate(15.5162 13.6532) scale(0.000645156) rotate(-66.2644)"/>
<use xlink:href="#stroke0_1538_2032" transform="translate(15.5209 13.6445) scale(0.000593231) rotate(1.07711)"/>
<use xlink:href="#stroke0_1538_2032" transform="translate(15.6738 13.8416) scale(0.000668762) rotate(123.155)"/>
<use xlink:href="#stroke0_1538_2032" transform="translate(15.3742 14.1051) scale(0.00055649) rotate(-99.3634)"/>
<use xlink:href="#stroke0_1538_2032" transform="translate(15.1492 14.0316) scale(0.00103224) rotate(-13.9982)"/>
<use xlink:href="#stroke0_1538_2032" transform="translate(15.4152 14.2331) scale(0.000673354) rotate(114.113)"/>
<use xlink:href="#stroke0_1538_2032" transform="translate(14.9897 14.4616) scale(0.000851816) rotate(-51.6161)"/>
<use xlink:href="#stroke0_1538_2032" transform="translate(15.2087 14.5672) scale(0.000506286) rotate(144.098)"/>
<use xlink:href="#stroke0_1538_2032" transform="translate(15.0683 14.5247) scale(0.00068021) rotate(78.5639)"/>
<use xlink:href="#stroke0_1538_2032" transform="translate(14.7624 14.5745) scale(0.0011011) rotate(21.0946)"/>
<use xlink:href="#stroke0_1538_2032" transform="translate(14.6904 15.0999) scale(0.000794038) rotate(-120.941)"/>
<use xlink:href="#stroke0_1538_2032" transform="translate(14.5874 15.2328) scale(0.000837737) rotate(-127.396)"/>
<use xlink:href="#stroke0_1538_2032" transform="translate(14.4139 15.2162) scale(0.000538758) rotate(-96.6036)"/>
<use xlink:href="#stroke0_1538_2032" transform="translate(14.528 15.4475) scale(0.00117335) rotate(-178.383)"/>
<use xlink:href="#stroke0_1538_2032" transform="translate(14.3927 15.2222) scale(0.00103627) rotate(105.311)"/>
<use xlink:href="#stroke0_1538_2032" transform="translate(13.9215 15.3718) scale(0.000610746) rotate(-24.9877)"/>
<use xlink:href="#stroke0_1538_2032" transform="translate(14.1283 15.4176) scale(0.00110901) rotate(110.067)"/>
<use xlink:href="#stroke0_1538_2032" transform="translate(13.5648 15.7882) scale(0.00104153) rotate(-95.3213)"/>
<use xlink:href="#stroke0_1538_2032" transform="translate(13.3875 15.6961) scale(0.000796675) rotate(-52.5866)"/>
<use xlink:href="#stroke0_1538_2032" transform="translate(13.5831 15.7003) scale(0.000674077) rotate(120.91)"/>
<use xlink:href="#stroke0_1538_2032" transform="translate(13.4106 15.8611) scale(0.000659768) rotate(166.674)"/>
<use xlink:href="#stroke0_1538_2032" transform="translate(13.1658 15.6097) scale(0.000983262) rotate(59.0842)"/>
<use xlink:href="#stroke0_1538_2032" transform="translate(12.7725 15.8892) scale(0.000767517) rotate(-46.8614)"/>
<use xlink:href="#stroke0_1538_2032" transform="translate(12.5491 15.8839) scale(0.000988128) rotate(-33.8977)"/>
<use xlink:href="#stroke0_1538_2032" transform="translate(12.7553 16.0538) scale(0.000727518) rotate(169.434)"/>
<use xlink:href="#stroke0_1538_2032" transform="translate(12.6269 16.1103) scale(0.0009718) rotate(167.775)"/>
<use xlink:href="#stroke0_1538_2032" transform="translate(12.3706 16.0821) scale(0.000515127) rotate(-175.043)"/>
<use xlink:href="#stroke0_1538_2032" transform="translate(12.0456 16.0355) scale(0.000481588) rotate(-59.853)"/>
<use xlink:href="#stroke0_1538_2032" transform="translate(12.085 15.8829) scale(0.000557344) rotate(80.6101)"/>
<use xlink:href="#stroke0_1538_2032" transform="translate(11.9884 16.2084) scale(0.00117906) rotate(-176.189)"/>
<use xlink:href="#stroke0_1538_2032" transform="translate(11.7249 15.8872) scale(0.000501361) rotate(73.4831)"/>
<use xlink:href="#stroke0_1538_2032" transform="translate(11.4429 15.7428) scale(0.00100688) rotate(34.1934)"/>
<use xlink:href="#stroke0_1538_2032" transform="translate(11.2903 15.8379) scale(0.000510205) rotate(17.217)"/>
<use xlink:href="#stroke0_1538_2032" transform="translate(10.9986 15.8414) scale(0.00082882) rotate(-24.0012)"/>
<use xlink:href="#stroke0_1538_2032" transform="translate(10.8425 15.6821) scale(0.00103774) rotate(4.49637)"/>
<use xlink:href="#stroke0_1538_2032" transform="translate(10.7097 15.7763) scale(0.000640943) rotate(-23.8509)"/>
<use xlink:href="#stroke0_1538_2032" transform="translate(10.526 15.6772) scale(0.000814866) rotate(-17.0183)"/>
<use xlink:href="#stroke0_1538_2032" transform="translate(10.4215 15.7165) scale(0.00056485) rotate(-42.591)"/>
<use xlink:href="#stroke0_1538_2032" transform="translate(10.3264 15.5105) scale(0.000752772) rotate(19.7945)"/>
<use xlink:href="#stroke0_1538_2032" transform="translate(10.2251 15.3218) scale(0.00114662) rotate(45.1304)"/>
<use xlink:href="#stroke0_1538_2032" transform="translate(9.94596 15.5292) scale(0.000637311) rotate(-55.1275)"/>
<use xlink:href="#stroke0_1538_2032" transform="translate(9.98566 15.5546) scale(0.000469164) rotate(-145.884)"/>
<use xlink:href="#stroke0_1538_2032" transform="translate(9.72278 15.2956) scale(0.000588527) rotate(-10.1524)"/>
<use xlink:href="#stroke0_1538_2032" transform="translate(9.56149 15.1545) scale(0.000793223) rotate(-4.04987)"/>
<use xlink:href="#stroke0_1538_2032" transform="translate(9.47627 15.1418) scale(0.000514035) rotate(-20.4401)"/>
<use xlink:href="#stroke0_1538_2032" transform="translate(9.48699 15.2189) scale(0.000465742) rotate(-143.192)"/>
<use xlink:href="#stroke0_1538_2032" transform="translate(9.19098 15.2066) scale(0.00107836) rotate(-103.924)"/>
<use xlink:href="#stroke0_1538_2032" transform="translate(9.31662 15.0402) scale(0.000895152) rotate(-167.807)"/>
<use xlink:href="#stroke0_1538_2032" transform="translate(8.94079 14.6407) scale(0.000790434) rotate(-15.3688)"/>
<use xlink:href="#stroke0_1538_2032" transform="translate(9.10994 14.5921) scale(0.000590687) rotate(113.471)"/>
<use xlink:href="#stroke0_1538_2032" transform="translate(8.7593 14.5523) scale(0.000603056) rotate(-60.4776)"/>
<use xlink:href="#stroke0_1538_2032" transform="translate(8.83508 14.3071) scale(0.000460546) rotate(59.9257)"/>
<use xlink:href="#stroke0_1538_2032" transform="translate(8.54402 14.4626) scale(0.00116535) rotate(-99.7847)"/>
<use xlink:href="#stroke0_1538_2032" transform="translate(8.68966 14.0239) scale(0.000511768) rotate(77.3654)"/>
<use xlink:href="#stroke0_1538_2032" transform="translate(8.32965 13.858) scale(0.000988152) rotate(-17.5836)"/>
<use xlink:href="#stroke0_1538_2032" transform="translate(8.32216 13.9287) scale(0.000654779) rotate(-81.6705)"/>
<use xlink:href="#stroke0_1538_2032" transform="translate(8.48424 13.8445) scale(0.000835218) rotate(-172.984)"/>
<use xlink:href="#stroke0_1538_2032" transform="translate(8.19961 13.6048) scale(0.000570936) rotate(-70.9297)"/>
<use xlink:href="#stroke0_1538_2032" transform="translate(8.13964 13.4759) scale(0.000529224) rotate(-72.1659)"/>
<use xlink:href="#stroke0_1538_2032" transform="translate(7.99541 13.1809) scale(0.000910442) rotate(-25.7955)"/>
<use xlink:href="#stroke0_1538_2032" transform="translate(8.25484 12.9822) scale(0.000674686) rotate(84.3405)"/>
<use xlink:href="#stroke0_1538_2032" transform="translate(7.82792 13.0225) scale(0.0012144) rotate(-68.733)"/>
<use xlink:href="#stroke0_1538_2032" transform="translate(8.07408 12.5462) scale(0.0008407) rotate(48.4979)"/>
<use xlink:href="#stroke0_1538_2032" transform="translate(8.24871 12.637) scale(0.000960098) rotate(153.411)"/>
<use xlink:href="#stroke0_1538_2032" transform="translate(7.92264 12.3515) scale(0.000484722) rotate(-5.24773)"/>
<use xlink:href="#stroke0_1538_2032" transform="translate(8.23023 12.2273) scale(0.000934374) rotate(129.305)"/>
<use xlink:href="#stroke0_1538_2032" transform="translate(7.95219 11.9758) scale(0.000573796) rotate(20.8559)"/>
<use xlink:href="#stroke0_1538_2032" transform="translate(7.93669 12.0418) scale(0.000473549) rotate(-93.9905)"/>
<use xlink:href="#stroke0_1538_2032" transform="translate(7.94544 11.6069) scale(0.000813645) rotate(29.6892)"/>
<use xlink:href="#stroke0_1538_2032" transform="translate(7.99309 11.7851) scale(0.000629454) rotate(-131.726)"/>
<use xlink:href="#stroke0_1538_2032" transform="translate(8.04878 11.3673) scale(0.000548805) rotate(51.5718)"/>
<use xlink:href="#stroke0_1538_2032" transform="translate(8.08134 11.5563) scale(0.00104843) rotate(-138.044)"/>
<use xlink:href="#stroke0_1538_2032" transform="translate(8.30296 11.089) scale(0.000926696) rotate(122.057)"/>
<use xlink:href="#stroke0_1538_2032" transform="translate(8.24422 10.808) scale(0.000834661) rotate(77.0186)"/>
<use xlink:href="#stroke0_1538_2032" transform="translate(8.23232 10.9243) scale(0.000508299) rotate(-173.279)"/>
<use xlink:href="#stroke0_1538_2032" transform="translate(8.27393 10.6038) scale(0.000481197) rotate(74.0961)"/>
<use xlink:href="#stroke0_1538_2032" transform="translate(8.36596 10.6968) scale(0.000804726) rotate(-169.058)"/>
<use xlink:href="#stroke0_1538_2032" transform="translate(8.36714 10.5557) scale(0.000658222) rotate(-145.814)"/>
<use xlink:href="#stroke0_1538_2032" transform="translate(8.20908 10.3728) scale(0.00103304) rotate(-82.5692)"/>
<use xlink:href="#stroke0_1538_2032" transform="translate(8.52167 10.2224) scale(0.00059795) rotate(-158.06)"/>
<use xlink:href="#stroke0_1538_2032" transform="translate(8.35871 9.81771) scale(0.000994342) rotate(-15.659)"/>
<use xlink:href="#stroke0_1538_2032" transform="translate(8.48705 9.90679) scale(0.000898846) rotate(-78.7165)"/>
<use xlink:href="#stroke0_1538_2032" transform="translate(8.98228 9.75545) scale(0.00105576) rotate(163.449)"/>
<use xlink:href="#stroke0_1538_2032" transform="translate(8.94984 9.32739) scale(0.000824593) rotate(67.5107)"/>
<use xlink:href="#stroke0_1538_2032" transform="translate(8.75961 9.25287) scale(0.00115202) rotate(-22.1611)"/>
<use xlink:href="#stroke0_1538_2032" transform="translate(9.13822 9.04224) scale(0.000794671) rotate(54.6719)"/>
<use xlink:href="#stroke0_1538_2032" transform="translate(9.00509 9.06416) scale(0.0010363) rotate(-36.9407)"/>
<use xlink:href="#stroke0_1538_2032" transform="translate(9.15473 8.88317) scale(0.00104692) rotate(-23.9194)"/>
<use xlink:href="#stroke0_1538_2032" transform="translate(9.35432 8.61707) scale(0.00120188) rotate(5.85669)"/>
<use xlink:href="#stroke0_1538_2032" transform="translate(9.76064 8.82024) scale(0.000518389) rotate(161.997)"/>
<use xlink:href="#stroke0_1538_2032" transform="translate(9.66037 8.75722) scale(0.000600552) rotate(-81.6563)"/>
<use xlink:href="#stroke0_1538_2032" transform="translate(9.74167 8.5879) scale(0.000691656) rotate(-47.0267)"/>
<use xlink:href="#stroke0_1538_2032" transform="translate(10.1847 8.57406) scale(0.000686366) rotate(159.599)"/>
<use xlink:href="#stroke0_1538_2032" transform="translate(10.4286 8.28029) scale(0.00110751) rotate(99.2685)"/>
<use xlink:href="#stroke0_1538_2032" transform="translate(10.35 8.24272) scale(0.00046795) rotate(53.0607)"/>
<use xlink:href="#stroke0_1538_2032" transform="translate(10.5379 8.19232) scale(0.000531014) rotate(79.64)"/>
<use xlink:href="#stroke0_1538_2032" transform="translate(10.4936 8.34872) scale(0.000704528) rotate(-88.2926)"/>
<use xlink:href="#stroke0_1538_2032" transform="translate(10.8842 8.36053) scale(0.000828652) rotate(-168.327)"/>
<use xlink:href="#stroke0_1538_2032" transform="translate(10.795 8.11041) scale(0.000577352) rotate(-25.6674)"/>
<use xlink:href="#stroke0_1538_2032" transform="translate(11.2609 8.01941) scale(0.000843423) rotate(107.431)"/>
<use xlink:href="#stroke0_1538_2032" transform="translate(11.4062 8.02589) scale(0.000731502) rotate(118.194)"/>
<use xlink:href="#stroke0_1538_2032" transform="translate(11.3182 8.13906) scale(0.000467144) rotate(-102.168)"/>
<use xlink:href="#stroke0_1538_2032" transform="translate(11.6822 7.86379) scale(0.000893804) rotate(82.9907)"/>
<use xlink:href="#stroke0_1538_2032" transform="translate(11.724 7.87981) scale(0.000525846) rotate(58.6882)"/>
<use xlink:href="#stroke0_1538_2032" transform="translate(11.8886 7.88406) scale(0.000532422) rotate(68.0874)"/>
<use xlink:href="#stroke0_1538_2032" transform="translate(12.2907 8.10941) scale(0.00118595) rotate(158.461)"/>
<use xlink:href="#stroke0_1538_2032" transform="translate(12.1101 8.21651) scale(0.00104374) rotate(-107.73)"/>
<use xlink:href="#stroke0_1538_2032" transform="translate(12.6687 8.01214) scale(0.00109539) rotate(129.216)"/>
<use xlink:href="#stroke0_1538_2032" transform="translate(12.7147 7.88755) scale(0.00090393) rotate(81.4628)"/>
<use xlink:href="#stroke0_1538_2032" transform="translate(12.6695 7.97205) scale(0.000494092) rotate(14.363)"/>
<use xlink:href="#stroke0_1538_2032" transform="translate(13.0708 8.26863) scale(0.00097022) rotate(176.217)"/>
<use xlink:href="#stroke0_1538_2032" transform="translate(13.01 8.02088) scale(0.000482336) rotate(27.0779)"/>
<use xlink:href="#stroke0_1538_2032" transform="translate(13.0239 8.08042) scale(0.000904116) rotate(-18.9079)"/>
<use xlink:href="#stroke0_1538_2032" transform="translate(13.5301 8.27496) scale(0.000733147) rotate(149.567)"/>
<use xlink:href="#stroke0_1538_2032" transform="translate(13.6267 8.26247) scale(0.000572554) rotate(119.401)"/>
<use xlink:href="#stroke0_1538_2032" transform="translate(13.4866 8.17557) scale(0.00114791) rotate(-3.29696)"/>
<use xlink:href="#stroke0_1538_2032" transform="translate(13.6134 8.424) scale(0.000985015) rotate(-39.4506)"/>
<use xlink:href="#stroke0_1538_2032" transform="translate(14.0977 8.6187) scale(0.000650807) rotate(168.889)"/>
<use xlink:href="#stroke0_1538_2032" transform="translate(14.1777 8.66386) scale(0.000458713) rotate(174.577)"/>
<use xlink:href="#stroke0_1538_2032" transform="translate(14.3555 8.8022) scale(0.000741191) rotate(179.855)"/>
<use xlink:href="#stroke0_1538_2032" transform="translate(14.4872 8.85802) scale(0.000664069) rotate(166.106)"/>
<use xlink:href="#stroke0_1538_2032" transform="translate(14.3995 8.95214) scale(0.000470579) rotate(-99.9687)"/>
<use xlink:href="#stroke0_1538_2032" transform="translate(14.4106 8.90619) scale(0.000831752) rotate(-26.6744)"/>
<use xlink:href="#stroke0_1538_2032" transform="translate(14.7171 8.933) scale(0.000488715) rotate(45.9911)"/>
<use xlink:href="#stroke0_1538_2032" transform="translate(14.9515 9.00961) scale(0.00083318) rotate(80.9518)"/>
<use xlink:href="#stroke0_1538_2032" transform="translate(14.8037 9.54183) scale(0.00113981) rotate(-101.378)"/>
<use xlink:href="#stroke0_1538_2032" transform="translate(15.1009 9.3309) scale(0.000469307) rotate(74.489)"/>
<use xlink:href="#stroke0_1538_2032" transform="translate(15.0857 9.43303) scale(0.000475059) rotate(18.1227)"/>
<use xlink:href="#stroke0_1538_2032" transform="translate(15.5068 9.79724) scale(0.00115865) rotate(159.166)"/>
<use xlink:href="#stroke0_1538_2032" transform="translate(15.1268 9.83646) scale(0.000968505) rotate(-45.163)"/>
<use xlink:href="#stroke0_1538_2032" transform="translate(15.357 9.82629) scale(0.000719748) rotate(15.7797)"/>
<use xlink:href="#stroke0_1538_2032" transform="translate(15.4079 10.0114) scale(0.000637004) rotate(-10.0555)"/>
<use xlink:href="#stroke0_1538_2032" transform="translate(15.4225 10.07) scale(0.00122093) rotate(1.93537)"/>
<use xlink:href="#stroke0_1538_2032" transform="translate(15.559 10.4452) scale(0.000500945) rotate(-61.8138)"/>
<use xlink:href="#stroke0_1538_2032" transform="translate(15.7986 10.4003) scale(0.000799194) rotate(68.1255)"/>
<use xlink:href="#stroke0_1538_2032" transform="translate(15.7439 10.5955) scale(0.000465152) rotate(29.6668)"/>
<use xlink:href="#stroke0_1538_2032" transform="translate(15.6845 10.7862) scale(0.000660261) rotate(-23.2082)"/>
<use xlink:href="#stroke0_1538_2032" transform="translate(16.1303 10.9965) scale(0.00109275) rotate(126.868)"/>
<use xlink:href="#stroke0_1538_2032" transform="translate(16.0328 11.2251) scale(0.000576031) rotate(156.565)"/>
<use xlink:href="#stroke0_1538_2032" transform="translate(16.0682 11.2102) scale(0.000730185) rotate(89.6597)"/>
<use xlink:href="#stroke0_1538_2032" transform="translate(15.839 11.2878) scale(0.00119075) rotate(13.3141)"/>
<use xlink:href="#stroke0_1538_2032" transform="translate(15.7675 11.7992) scale(0.000997084) rotate(-68.1252)"/>
<use xlink:href="#stroke0_1538_2032" transform="translate(15.8551 11.8989) scale(0.000605854) rotate(-61.4966)"/>
<use xlink:href="#stroke0_1538_2032" transform="translate(16.1087 12.0567) scale(0.000533015) rotate(161.352)"/>
<path d="M12 0.5C13.0603 0.5 13.9637 1.16114 14.3271 2.09277L14.3291 2.0918C15.3961 4.82798 16.5131 5.47269 19.416 5.02832L19.4131 5.03125C19.5376 5.01215 19.665 5 19.7949 5C21.1755 5.00013 22.2949 6.11937 22.2949 7.5C22.2947 8.88041 21.1754 9.99987 19.7949 10C18.7344 10 17.8301 9.33824 17.4668 8.40625L17.4658 8.4082C16.3988 5.67193 15.2811 5.02722 12.3779 5.47168L12.3799 5.46777C12.2558 5.48671 12.1293 5.5 12 5.5C10.6193 5.5 9.5 4.38071 9.5 3C9.5 1.61929 10.6193 0.5 12 0.5Z" fill="#1A1A1A"/>
<use xlink:href="#stroke1_1538_2032" transform="translate(12.1096 0.525804) scale(0.000481385) rotate(147.538)"/>
<use xlink:href="#stroke1_1538_2032" transform="translate(11.982 0.399779) scale(0.000950566) rotate(-18.3112)"/>
<use xlink:href="#stroke1_1538_2032" transform="translate(12.3062 0.337415) scale(0.000879986) rotate(32.1562)"/>
<use xlink:href="#stroke1_1538_2032" transform="translate(12.5266 0.303031) scale(0.00109605) rotate(41.416)"/>
<use xlink:href="#stroke1_1538_2032" transform="translate(12.548 0.639682) scale(0.000603831) rotate(-61.7892)"/>
<use xlink:href="#stroke1_1538_2032" transform="translate(12.6758 0.617138) scale(0.000686519) rotate(-34.9201)"/>
<use xlink:href="#stroke1_1538_2032" transform="translate(13.1897 0.766142) scale(0.000867075) rotate(154.239)"/>
<use xlink:href="#stroke1_1538_2032" transform="translate(12.9983 0.95372) scale(0.00097114) rotate(-91.9509)"/>
<use xlink:href="#stroke1_1538_2032" transform="translate(13.4965 0.849491) scale(0.000839503) rotate(126.829)"/>
<use xlink:href="#stroke1_1538_2032" transform="translate(13.3181 0.863105) scale(0.00061838) rotate(-12.6089)"/>
<use xlink:href="#stroke1_1538_2032" transform="translate(13.4425 1.10427) scale(0.000568388) rotate(-77.6964)"/>
<use xlink:href="#stroke1_1538_2032" transform="translate(13.8567 0.932912) scale(0.00121049) rotate(77.1868)"/>
<use xlink:href="#stroke1_1538_2032" transform="translate(13.8932 1.05696) scale(0.00106665) rotate(56.3138)"/>
<use xlink:href="#stroke1_1538_2032" transform="translate(13.9335 1.27528) scale(0.00058977) rotate(41.4959)"/>
<use xlink:href="#stroke1_1538_2032" transform="translate(14.0528 1.63251) scale(0.000473902) rotate(-151.322)"/>
<use xlink:href="#stroke1_1538_2032" transform="translate(13.9918 1.83063) scale(0.000843567) rotate(-98.9611)"/>
<use xlink:href="#stroke1_1538_2032" transform="translate(14.3985 1.65924) scale(0.00113313) rotate(90.9492)"/>
<use xlink:href="#stroke1_1538_2032" transform="translate(14.4544 2.11859) scale(0.000914094) rotate(167.219)"/>
<use xlink:href="#stroke1_1538_2032" transform="translate(14.4744 2.14163) scale(0.000566797) rotate(138.544)"/>
<use xlink:href="#stroke1_1538_2032" transform="translate(14.2853 2.07364) scale(0.00118113) rotate(14.1491)"/>
<use xlink:href="#stroke1_1538_2032" transform="translate(14.3036 2.58613) scale(0.000906661) rotate(-76.4853)"/>
<use xlink:href="#stroke1_1538_2032" transform="translate(14.4148 2.73347) scale(0.000757846) rotate(-83.493)"/>
<use xlink:href="#stroke1_1538_2032" transform="translate(14.7619 2.60324) scale(0.00093885) rotate(79.2703)"/>
<use xlink:href="#stroke1_1538_2032" transform="translate(14.4571 2.89961) scale(0.00114833) rotate(-32.5402)"/>
<use xlink:href="#stroke1_1538_2032" transform="translate(14.8617 2.96158) scale(0.000714886) rotate(73.1537)"/>
<use xlink:href="#stroke1_1538_2032" transform="translate(14.8882 3.44443) scale(0.000824105) rotate(-142.292)"/>
<use xlink:href="#stroke1_1538_2032" transform="translate(14.9872 3.60898) scale(0.000879499) rotate(-148.409)"/>
<use xlink:href="#stroke1_1538_2032" transform="translate(14.8909 3.34683) scale(0.00119381) rotate(9.39661)"/>
<use xlink:href="#stroke1_1538_2032" transform="translate(15.0476 3.78872) scale(0.000509311) rotate(-95.3974)"/>
<use xlink:href="#stroke1_1538_2032" transform="translate(15.0332 4.07514) scale(0.00121041) rotate(-92.0946)"/>
<use xlink:href="#stroke1_1538_2032" transform="translate(15.2537 4.0621) scale(0.000508962) rotate(-95.0426)"/>
<use xlink:href="#stroke1_1538_2032" transform="translate(15.4984 4.39545) scale(0.00116253) rotate(-145.877)"/>
<use xlink:href="#stroke1_1538_2032" transform="translate(15.4663 4.10429) scale(0.000729252) rotate(13.4273)"/>
<use xlink:href="#stroke1_1538_2032" transform="translate(15.7309 4.44532) scale(0.00051823) rotate(-173.23)"/>
<use xlink:href="#stroke1_1538_2032" transform="translate(15.9737 4.48891) scale(0.000826928) rotate(142.234)"/>
<use xlink:href="#stroke1_1538_2032" transform="translate(15.7477 4.44339) scale(0.000920615) rotate(-10.4892)"/>
<use xlink:href="#stroke1_1538_2032" transform="translate(16.3528 4.72929) scale(0.00119133) rotate(140.974)"/>
<use xlink:href="#stroke1_1538_2032" transform="translate(16.0542 4.92803) scale(0.000949335) rotate(-83.7795)"/>
<use xlink:href="#stroke1_1538_2032" transform="translate(16.2977 5.02158) scale(0.000759224) rotate(-109.407)"/>
<use xlink:href="#stroke1_1538_2032" transform="translate(16.4187 5.05199) scale(0.000789528) rotate(-96.1176)"/>
<use xlink:href="#stroke1_1538_2032" transform="translate(16.9334 4.94736) scale(0.000986148) rotate(126.831)"/>
<use xlink:href="#stroke1_1538_2032" transform="translate(17.1434 5.17452) scale(0.00120884) rotate(163.031)"/>
<use xlink:href="#stroke1_1538_2032" transform="translate(17.1336 4.90625) scale(0.00076042) rotate(69.7796)"/>
<use xlink:href="#stroke1_1538_2032" transform="translate(17.1898 4.95767) scale(0.000609656) rotate(38.474)"/>
<use xlink:href="#stroke1_1538_2032" transform="translate(17.4297 5.30299) scale(0.000762165) rotate(-157.142)"/>
<use xlink:href="#stroke1_1538_2032" transform="translate(17.6001 5.08332) scale(0.000457416) rotate(108.414)"/>
<use xlink:href="#stroke1_1538_2032" transform="translate(17.462 5.10878) scale(0.000950414) rotate(-37.9048)"/>
<use xlink:href="#stroke1_1538_2032" transform="translate(18.0178 5.04977) scale(0.000864274) rotate(98.8724)"/>
<use xlink:href="#stroke1_1538_2032" transform="translate(17.8975 5.0144) scale(0.000858234) rotate(4.84867)"/>
<use xlink:href="#stroke1_1538_2032" transform="translate(18.2721 5.20416) scale(0.000513405) rotate(164.18)"/>
<use xlink:href="#stroke1_1538_2032" transform="translate(18.3471 5.04204) scale(0.000497037) rotate(63.4843)"/>
<use xlink:href="#stroke1_1538_2032" transform="translate(18.4825 5.31757) scale(0.000716435) rotate(-140.312)"/>
<use xlink:href="#stroke1_1538_2032" transform="translate(18.5474 5.24317) scale(0.000580088) rotate(-105.08)"/>
<use xlink:href="#stroke1_1538_2032" transform="translate(18.7137 5.00546) scale(0.000556353) rotate(22.1388)"/>
<use xlink:href="#stroke1_1538_2032" transform="translate(19.0742 4.96544) scale(0.000827269) rotate(92.5201)"/>
<use xlink:href="#stroke1_1538_2032" transform="translate(18.9925 4.96327) scale(0.000607317) rotate(6.78358)"/>
<use xlink:href="#stroke1_1538_2032" transform="translate(19.113 4.81982) scale(0.00119601) rotate(8.61007)"/>
<use xlink:href="#stroke1_1538_2032" transform="translate(19.1936 5.09789) scale(0.00122056) rotate(-58.7065)"/>
<use xlink:href="#stroke1_1538_2032" transform="translate(19.4744 5.07464) scale(0.000745902) rotate(-70.4724)"/>
<use xlink:href="#stroke1_1538_2032" transform="translate(19.9372 5.01408) scale(0.00065273) rotate(144.977)"/>
<use xlink:href="#stroke1_1538_2032" transform="translate(20.0118 5.06719) scale(0.000455471) rotate(169.79)"/>
<use xlink:href="#stroke1_1538_2032" transform="translate(20.2863 5.1752) scale(0.00099257) rotate(173.331)"/>
<use xlink:href="#stroke1_1538_2032" transform="translate(20.2978 4.86844) scale(0.000731164) rotate(54.4728)"/>
<use xlink:href="#stroke1_1538_2032" transform="translate(20.7011 5.17358) scale(0.00111748) rotate(153.171)"/>
<use xlink:href="#stroke1_1538_2032" transform="translate(20.7187 4.9193) scale(0.00103894) rotate(65.3802)"/>
<use xlink:href="#stroke1_1538_2032" transform="translate(20.8314 5.07158) scale(0.000621115) rotate(68.7557)"/>
<use xlink:href="#stroke1_1538_2032" transform="translate(21.0302 5.45337) scale(0.000880992) rotate(-164.893)"/>
<use xlink:href="#stroke1_1538_2032" transform="translate(21.0615 5.55013) scale(0.000835123) rotate(-130.871)"/>
<use xlink:href="#stroke1_1538_2032" transform="translate(21.4193 5.60907) scale(0.00102589) rotate(170.407)"/>
<use xlink:href="#stroke1_1538_2032" transform="translate(21.2926 5.35934) scale(0.000962158) rotate(23.2162)"/>
<use xlink:href="#stroke1_1538_2032" transform="translate(21.3827 5.49726) scale(0.000972481) rotate(8.74085)"/>
<use xlink:href="#stroke1_1538_2032" transform="translate(21.6995 6.0884) scale(0.00116392) rotate(-144.772)"/>
<use xlink:href="#stroke1_1538_2032" transform="translate(21.8626 5.8745) scale(0.000536145) rotate(107.801)"/>
<use xlink:href="#stroke1_1538_2032" transform="translate(22.0082 6.07758) scale(0.000737973) rotate(137.432)"/>
<use xlink:href="#stroke1_1538_2032" transform="translate(21.6776 6.29689) scale(0.00120501) rotate(-59.1327)"/>
<use xlink:href="#stroke1_1538_2032" transform="translate(22.0588 6.24154) scale(0.000495966) rotate(60.8339)"/>
<use xlink:href="#stroke1_1538_2032" transform="translate(22.1245 6.31493) scale(0.000833497) rotate(52.8708)"/>
<use xlink:href="#stroke1_1538_2032" transform="translate(22.0724 6.54543) scale(0.000510142) rotate(9.00219)"/>
<use xlink:href="#stroke1_1538_2032" transform="translate(22.2871 6.82773) scale(0.000510138) rotate(157.659)"/>
<use xlink:href="#stroke1_1538_2032" transform="translate(22.4234 6.91865) scale(0.000776014) rotate(129.619)"/>
<use xlink:href="#stroke1_1538_2032" transform="translate(22.032 7.07564) scale(0.00101799) rotate(-35.5788)"/>
<use xlink:href="#stroke1_1538_2032" transform="translate(22.265 7.47937) scale(0.00084272) rotate(-125.72)"/>
<use xlink:href="#stroke1_1538_2032" transform="translate(22.2485 7.28551) scale(0.000723596) rotate(26.1208)"/>
<use xlink:href="#stroke1_1538_2032" transform="translate(22.4156 7.66654) scale(0.000614352) rotate(162.902)"/>
<use xlink:href="#stroke1_1538_2032" transform="translate(22.4535 7.81044) scale(0.000782916) rotate(149.603)"/>
<use xlink:href="#stroke1_1538_2032" transform="translate(22.0659 7.95073) scale(0.000800399) rotate(-53.1612)"/>
<use xlink:href="#stroke1_1538_2032" transform="translate(22.0194 8.11992) scale(0.000921831) rotate(-50.0506)"/>
<use xlink:href="#stroke1_1538_2032" transform="translate(22.1673 8.09613) scale(0.000655919) rotate(39.8215)"/>
<use xlink:href="#stroke1_1538_2032" transform="translate(22.2361 8.32287) scale(0.000510093) rotate(103.418)"/>
<use xlink:href="#stroke1_1538_2032" transform="translate(21.9549 8.5112) scale(0.000567743) rotate(-40.0005)"/>
<use xlink:href="#stroke1_1538_2032" transform="translate(22.0212 8.75804) scale(0.000483168) rotate(-139.179)"/>
<use xlink:href="#stroke1_1538_2032" transform="translate(22.0593 8.76002) scale(0.000520995) rotate(131.38)"/>
<use xlink:href="#stroke1_1538_2032" transform="translate(21.8606 8.73281) scale(0.000800159) rotate(41.8765)"/>
<use xlink:href="#stroke1_1538_2032" transform="translate(21.7733 8.88094) scale(0.000685913) rotate(46.3264)"/>
<use xlink:href="#stroke1_1538_2032" transform="translate(21.3842 9.29967) scale(0.00119644) rotate(-66.4448)"/>
<use xlink:href="#stroke1_1538_2032" transform="translate(21.4837 9.55242) scale(0.000977246) rotate(-128.213)"/>
<use xlink:href="#stroke1_1538_2032" transform="translate(21.5556 9.31817) scale(0.000919127) rotate(99.0371)"/>
<use xlink:href="#stroke1_1538_2032" transform="translate(21.3783 9.4148) scale(0.000770299) rotate(92.3836)"/>
<use xlink:href="#stroke1_1538_2032" transform="translate(20.8902 9.54115) scale(0.000940175) rotate(-22.4938)"/>
<use xlink:href="#stroke1_1538_2032" transform="translate(21.0922 9.68536) scale(0.000521991) rotate(124.689)"/>
<use xlink:href="#stroke1_1538_2032" transform="translate(21.0304 9.94887) scale(0.00119769) rotate(166.89)"/>
<use xlink:href="#stroke1_1538_2032" transform="translate(20.56 10.1427) scale(0.00120864) rotate(-126.617)"/>
<use xlink:href="#stroke1_1538_2032" transform="translate(20.2194 10.0009) scale(0.000977557) rotate(-69.6688)"/>
<use xlink:href="#stroke1_1538_2032" transform="translate(20.1112 9.91358) scale(0.000729974) rotate(-29.9368)"/>
<use xlink:href="#stroke1_1538_2032" transform="translate(20.0831 10.09) scale(0.000553458) rotate(-114.929)"/>
<use xlink:href="#stroke1_1538_2032" transform="translate(19.7398 9.9415) scale(0.000954657) rotate(-27.9836)"/>
<use xlink:href="#stroke1_1538_2032" transform="translate(19.7285 9.89438) scale(0.000554909) rotate(7.9313)"/>
<use xlink:href="#stroke1_1538_2032" transform="translate(19.7397 9.82604) scale(0.000827457) rotate(76.4234)"/>
<use xlink:href="#stroke1_1538_2032" transform="translate(19.3088 9.79953) scale(0.000983557) rotate(4.63043)"/>
<use xlink:href="#stroke1_1538_2032" transform="translate(19.5001 10.0144) scale(0.00100495) rotate(147.615)"/>
<use xlink:href="#stroke1_1538_2032" transform="translate(19.2516 9.92255) scale(0.000488202) rotate(139.321)"/>
<use xlink:href="#stroke1_1538_2032" transform="translate(19.1063 9.78896) scale(0.000571546) rotate(98.6647)"/>
<use xlink:href="#stroke1_1538_2032" transform="translate(18.5419 9.86799) scale(0.00116965) rotate(-58.4633)"/>
<use xlink:href="#stroke1_1538_2032" transform="translate(18.7773 9.83597) scale(0.000619722) rotate(-179.714)"/>
<use xlink:href="#stroke1_1538_2032" transform="translate(18.6243 9.37452) scale(0.00120889) rotate(69.4664)"/>
<use xlink:href="#stroke1_1538_2032" transform="translate(18.1209 9.57181) scale(0.000991545) rotate(-55.3995)"/>
<use xlink:href="#stroke1_1538_2032" transform="translate(18.2277 9.21078) scale(0.000940606) rotate(50.4134)"/>
<use xlink:href="#stroke1_1538_2032" transform="translate(18.2257 9.48885) scale(0.00104533) rotate(-177.517)"/>
<use xlink:href="#stroke1_1538_2032" transform="translate(18.0956 9.29801) scale(0.000777939) rotate(175.229)"/>
<use xlink:href="#stroke1_1538_2032" transform="translate(17.9523 9.16777) scale(0.000581373) rotate(-179.54)"/>
<use xlink:href="#stroke1_1538_2032" transform="translate(17.4766 8.98684) scale(0.00113466) rotate(-60.2699)"/>
<use xlink:href="#stroke1_1538_2032" transform="translate(17.4969 8.81892) scale(0.000637995) rotate(-54.981)"/>
<use xlink:href="#stroke1_1538_2032" transform="translate(17.7729 8.41325) scale(0.00119687) rotate(90.3932)"/>
<use xlink:href="#stroke1_1538_2032" transform="translate(17.4958 8.36846) scale(0.000512827) rotate(47.4974)"/>
<use xlink:href="#stroke1_1538_2032" transform="translate(17.5376 8.13077) scale(0.000896213) rotate(70.0619)"/>
<use xlink:href="#stroke1_1538_2032" transform="translate(17.343 8.28934) scale(0.000479428) rotate(-108.238)"/>
<use xlink:href="#stroke1_1538_2032" transform="translate(17.1825 7.7877) scale(0.00111185) rotate(18.8818)"/>
<use xlink:href="#stroke1_1538_2032" transform="translate(17.1799 8.00752) scale(0.000561331) rotate(-110.514)"/>
<use xlink:href="#stroke1_1538_2032" transform="translate(17.2266 7.87493) scale(0.000576154) rotate(-148.064)"/>
<use xlink:href="#stroke1_1538_2032" transform="translate(17.3361 7.72095) scale(0.0012238) rotate(166.382)"/>
<use xlink:href="#stroke1_1538_2032" transform="translate(16.9979 7.54322) scale(0.000479566) rotate(-114.561)"/>
<use xlink:href="#stroke1_1538_2032" transform="translate(17.1107 7.30415) scale(0.000560087) rotate(134.385)"/>
<use xlink:href="#stroke1_1538_2032" transform="translate(17.0206 7.31387) scale(0.000870496) rotate(-172.658)"/>
<use xlink:href="#stroke1_1538_2032" transform="translate(16.871 7.20124) scale(0.000882405) rotate(-155.733)"/>
<use xlink:href="#stroke1_1538_2032" transform="translate(16.8559 6.63848) scale(0.00112114) rotate(82.1231)"/>
<use xlink:href="#stroke1_1538_2032" transform="translate(16.5822 6.60491) scale(0.000519116) rotate(18.7806)"/>
<use xlink:href="#stroke1_1538_2032" transform="translate(16.4977 6.4967) scale(0.000497726) rotate(19.1704)"/>
<use xlink:href="#stroke1_1538_2032" transform="translate(16.2683 6.52794) scale(0.000751877) rotate(-61.2688)"/>
<use xlink:href="#stroke1_1538_2032" transform="translate(16.3648 6.26773) scale(0.000463262) rotate(52.8216)"/>
<use xlink:href="#stroke1_1538_2032" transform="translate(16.3722 6.24015) scale(0.000511797) rotate(121.124)"/>
<use xlink:href="#stroke1_1538_2032" transform="translate(16.0249 6.21808) scale(0.000571535) rotate(-68.3171)"/>
<use xlink:href="#stroke1_1538_2032" transform="translate(15.9506 6.28094) scale(0.00106354) rotate(-121.955)"/>
<use xlink:href="#stroke1_1538_2032" transform="translate(15.6892 5.98606) scale(0.000842086) rotate(-61.6742)"/>
<use xlink:href="#stroke1_1538_2032" transform="translate(15.6601 5.91351) scale(0.000536261) rotate(-79.6883)"/>
<use xlink:href="#stroke1_1538_2032" transform="translate(15.6154 5.52896) scale(0.000901102) rotate(42.4394)"/>
<use xlink:href="#stroke1_1538_2032" transform="translate(15.5723 5.50599) scale(0.000823568) rotate(76.863)"/>
<use xlink:href="#stroke1_1538_2032" transform="translate(15.1151 5.73337) scale(0.000981384) rotate(-81.7063)"/>
<use xlink:href="#stroke1_1538_2032" transform="translate(15.3386 5.36621) scale(0.0011493) rotate(98.5916)"/>
<use xlink:href="#stroke1_1538_2032" transform="translate(15.0421 5.69008) scale(0.0010683) rotate(-159.54)"/>
<use xlink:href="#stroke1_1538_2032" transform="translate(14.8694 5.2849) scale(0.000762091) rotate(74.9523)"/>
<use xlink:href="#stroke1_1538_2032" transform="translate(14.7457 5.474) scale(0.000589651) rotate(170.971)"/>
<use xlink:href="#stroke1_1538_2032" transform="translate(14.6061 5.51303) scale(0.000805439) rotate(176.755)"/>
<use xlink:href="#stroke1_1538_2032" transform="translate(14.4355 5.345) scale(0.000456434) rotate(122.568)"/>
<use xlink:href="#stroke1_1538_2032" transform="translate(13.9831 5.46399) scale(0.000909434) rotate(-81.0051)"/>
<use xlink:href="#stroke1_1538_2032" transform="translate(13.9024 5.38955) scale(0.000513176) rotate(-68.4359)"/>
<use xlink:href="#stroke1_1538_2032" transform="translate(13.8461 5.21131) scale(0.000589687) rotate(36.8856)"/>
<use xlink:href="#stroke1_1538_2032" transform="translate(13.5461 5.58017) scale(0.00113457) rotate(-107.932)"/>
<use xlink:href="#stroke1_1538_2032" transform="translate(13.3378 5.11686) scale(0.00116708) rotate(14.5802)"/>
<use xlink:href="#stroke1_1538_2032" transform="translate(13.3426 5.24577) scale(0.000503368) rotate(49.8171)"/>
<use xlink:href="#stroke1_1538_2032" transform="translate(13.0953 5.2843) scale(0.000530049) rotate(-3.31489)"/>
<use xlink:href="#stroke1_1538_2032" transform="translate(13.0673 5.25015) scale(0.000619808) rotate(56.2045)"/>
<use xlink:href="#stroke1_1538_2032" transform="translate(12.6787 5.51908) scale(0.000921105) rotate(-78.2136)"/>
<use xlink:href="#stroke1_1538_2032" transform="translate(12.6241 5.38246) scale(0.000458021) rotate(-24.226)"/>
<use xlink:href="#stroke1_1538_2032" transform="translate(12.5086 5.65251) scale(0.000927606) rotate(-125.411)"/>
<use xlink:href="#stroke1_1538_2032" transform="translate(12.3236 5.3838) scale(0.000525629) rotate(1.86288)"/>
<use xlink:href="#stroke1_1538_2032" transform="translate(12.0134 5.41185) scale(0.00100263) rotate(-23.6489)"/>
<use xlink:href="#stroke1_1538_2032" transform="translate(11.9261 5.47118) scale(0.00065251) rotate(-34.1561)"/>
<use xlink:href="#stroke1_1538_2032" transform="translate(11.8086 5.55156) scale(0.000575008) rotate(-73.3503)"/>
<use xlink:href="#stroke1_1538_2032" transform="translate(11.6464 5.58046) scale(0.000698548) rotate(-86.036)"/>
<use xlink:href="#stroke1_1538_2032" transform="translate(11.4785 5.61285) scale(0.000792788) rotate(-93.1899)"/>
<use xlink:href="#stroke1_1538_2032" transform="translate(11.4539 5.31312) scale(0.000552657) rotate(40.9874)"/>
<use xlink:href="#stroke1_1538_2032" transform="translate(11.3941 5.24158) scale(0.00083096) rotate(74.9486)"/>
<use xlink:href="#stroke1_1538_2032" transform="translate(10.9161 5.2207) scale(0.00102688) rotate(-13.0388)"/>
<use xlink:href="#stroke1_1538_2032" transform="translate(10.7568 5.33438) scale(0.000932473) rotate(-65.0219)"/>
<use xlink:href="#stroke1_1538_2032" transform="translate(10.8937 5.33159) scale(0.000632085) rotate(-164.435)"/>
<use xlink:href="#stroke1_1538_2032" transform="translate(10.6566 5.00107) scale(0.000612101) rotate(33.7351)"/>
<use xlink:href="#stroke1_1538_2032" transform="translate(10.6803 5.12213) scale(0.000581965) rotate(171.89)"/>
<use xlink:href="#stroke1_1538_2032" transform="translate(10.3466 5.03352) scale(0.000547418) rotate(-81.1537)"/>
<use xlink:href="#stroke1_1538_2032" transform="translate(10.2078 4.94003) scale(0.00058846) rotate(-74.691)"/>
<use xlink:href="#stroke1_1538_2032" transform="translate(10.1067 4.83108) scale(0.000546981) rotate(-72.279)"/>
<use xlink:href="#stroke1_1538_2032" transform="translate(10.0109 4.58533) scale(0.000602155) rotate(-20.1153)"/>
<use xlink:href="#stroke1_1538_2032" transform="translate(9.94028 4.59071) scale(0.000490699) rotate(-70.9189)"/>
<use xlink:href="#stroke1_1538_2032" transform="translate(9.96985 4.62138) scale(0.000918968) rotate(-148.281)"/>
<use xlink:href="#stroke1_1538_2032" transform="translate(9.8958 4.18414) scale(0.00048055) rotate(65.727)"/>
<use xlink:href="#stroke1_1538_2032" transform="translate(9.92626 4.28008) scale(0.000896123) rotate(179.376)"/>
<use xlink:href="#stroke1_1538_2032" transform="translate(9.95658 4.00631) scale(0.00116213) rotate(144.888)"/>
<use xlink:href="#stroke1_1538_2032" transform="translate(9.67066 4.00959) scale(0.000983641) rotate(-143.848)"/>
<use xlink:href="#stroke1_1538_2032" transform="translate(9.4631 3.66118) scale(0.000490927) rotate(-49.7539)"/>
<use xlink:href="#stroke1_1538_2032" transform="translate(9.4907 3.2166) scale(0.00108678) rotate(33.2035)"/>
<use xlink:href="#stroke1_1538_2032" transform="translate(9.45155 3.41436) scale(0.000467187) rotate(-97.5624)"/>
<use xlink:href="#stroke1_1538_2032" transform="translate(9.38085 3.32489) scale(0.000928099) rotate(-98.8514)"/>
<use xlink:href="#stroke1_1538_2032" transform="translate(9.43255 3.15083) scale(0.000773837) rotate(-110.463)"/>
<use xlink:href="#stroke1_1538_2032" transform="translate(9.63736 2.87377) scale(0.000524134) rotate(148.17)"/>
<use xlink:href="#stroke1_1538_2032" transform="translate(9.31656 2.78642) scale(0.00104699) rotate(-77.5018)"/>
<use xlink:href="#stroke1_1538_2032" transform="translate(9.53381 2.68088) scale(0.0008035) rotate(-126.619)"/>
<use xlink:href="#stroke1_1538_2032" transform="translate(9.67379 2.19625) scale(0.000716353) rotate(78.1761)"/>
<use xlink:href="#stroke1_1538_2032" transform="translate(9.50399 2.00198) scale(0.0009515) rotate(3.12088)"/>
<use xlink:href="#stroke1_1538_2032" transform="translate(9.79734 1.98009) scale(0.000472381) rotate(99.976)"/>
<use xlink:href="#stroke1_1538_2032" transform="translate(9.68774 2.00234) scale(0.000477881) rotate(-102.831)"/>
<use xlink:href="#stroke1_1538_2032" transform="translate(10.002 1.65602) scale(0.000857653) rotate(104.083)"/>
<use xlink:href="#stroke1_1538_2032" transform="translate(10.0312 1.76884) scale(0.000748348) rotate(-172.009)"/>
<use xlink:href="#stroke1_1538_2032" transform="translate(9.92109 1.36568) scale(0.000654825) rotate(11.0753)"/>
<use xlink:href="#stroke1_1538_2032" transform="translate(10.1918 1.59541) scale(0.00110118) rotate(-150.26)"/>
<use xlink:href="#stroke1_1538_2032" transform="translate(10.0674 1.23629) scale(0.000725672) rotate(-48.035)"/>
<use xlink:href="#stroke1_1538_2032" transform="translate(10.1991 1.28579) scale(0.00110672) rotate(-92.3378)"/>
<use xlink:href="#stroke1_1538_2032" transform="translate(10.5787 0.81202) scale(0.000803609) rotate(69.4817)"/>
<use xlink:href="#stroke1_1538_2032" transform="translate(10.5879 0.782677) scale(0.000564994) rotate(26.8607)"/>
<use xlink:href="#stroke1_1538_2032" transform="translate(11.0655 0.722528) scale(0.00119603) rotate(116.927)"/>
<use xlink:href="#stroke1_1538_2032" transform="translate(11.1662 0.561796) scale(0.00108504) rotate(95.1745)"/>
<use xlink:href="#stroke1_1538_2032" transform="translate(11.011 0.752586) scale(0.000566086) rotate(-92.4917)"/>
<use xlink:href="#stroke1_1538_2032" transform="translate(11.1018 0.605289) scale(0.000626754) rotate(-42.6451)"/>
<use xlink:href="#stroke1_1538_2032" transform="translate(11.528 0.74891) scale(0.000951014) rotate(-165.194)"/>
<use xlink:href="#stroke1_1538_2032" transform="translate(11.6764 0.599901) scale(0.000544127) rotate(162.294)"/>
<use xlink:href="#stroke1_1538_2032" transform="translate(11.651 0.650177) scale(0.000599454) rotate(-109.455)"/>
<use xlink:href="#stroke1_1538_2032" transform="translate(11.7099 0.466887) scale(0.00071261) rotate(-31.2026)"/>
<use xlink:href="#stroke1_1538_2032" transform="translate(11.8757 0.601279) scale(0.000658821) rotate(-81.9348)"/>
<path d="M19.7949 14C21.1755 14.0001 22.2949 15.1203 22.2949 16.501C22.2947 17.8814 21.1754 19.0008 19.7949 19.001C19.665 19.001 19.5377 18.9869 19.4131 18.9678L19.416 18.9717C16.5132 18.5274 15.3961 19.1722 14.3291 21.9082L14.3271 21.9062C13.9639 22.8383 13.0606 23.5 12 23.5C10.6193 23.5 9.5 22.3807 9.5 21C9.5 19.6193 10.6193 18.5 12 18.5C12.129 18.5 12.2552 18.5124 12.3789 18.5312L12.3779 18.5293C15.281 18.9737 16.3988 18.3288 17.4658 15.5928C17.829 14.6606 18.7342 14 19.7949 14Z" fill="#1A1A1A"/>
<use xlink:href="#stroke2_1538_2032" transform="translate(19.9301 13.9766) scale(0.000586731) rotate(124.461)"/>
<use xlink:href="#stroke2_1538_2032" transform="translate(19.7733 14.1568) scale(0.00108815) rotate(-79.4617)"/>
<use xlink:href="#stroke2_1538_2032" transform="translate(19.9767 13.9733) scale(0.00077769) rotate(-26.0242)"/>
<use xlink:href="#stroke2_1538_2032" transform="translate(20.1565 13.9976) scale(0.000656084) rotate(-29.4599)"/>
<use xlink:href="#stroke2_1538_2032" transform="translate(20.2212 14.0578) scale(0.00117675) rotate(-36.282)"/>
<use xlink:href="#stroke2_1538_2032" transform="translate(20.5219 13.9525) scale(0.00108242) rotate(6.67581)"/>
<use xlink:href="#stroke2_1538_2032" transform="translate(20.6819 14.0471) scale(0.00102807) rotate(-0.514955)"/>
<use xlink:href="#stroke2_1538_2032" transform="translate(20.9137 14.4435) scale(0.000668998) rotate(-109.437)"/>
<use xlink:href="#stroke2_1538_2032" transform="translate(21.0497 14.6003) scale(0.000942916) rotate(-113.061)"/>
<use xlink:href="#stroke2_1538_2032" transform="translate(21.0808 14.5278) scale(0.000897123) rotate(-57.5333)"/>
<use xlink:href="#stroke2_1538_2032" transform="translate(21.5413 14.4223) scale(0.000962052) rotate(77.8727)"/>
<use xlink:href="#stroke2_1538_2032" transform="translate(21.6743 14.8658) scale(0.000839508) rotate(-172.327)"/>
<use xlink:href="#stroke2_1538_2032" transform="translate(21.9634 14.7998) scale(0.00117926) rotate(122.954)"/>
<use xlink:href="#stroke2_1538_2032" transform="translate(21.784 14.825) scale(0.000633067) rotate(41.9796)"/>
<use xlink:href="#stroke2_1538_2032" transform="translate(21.6721 15.0517) scale(0.000912973) rotate(-23.6175)"/>
<use xlink:href="#stroke2_1538_2032" transform="translate(22.0943 15.4421) scale(0.000894317) rotate(-173.181)"/>
<use xlink:href="#stroke2_1538_2032" transform="translate(22.0176 15.2887) scale(0.000467238) rotate(34.311)"/>
<use xlink:href="#stroke2_1538_2032" transform="translate(22.0654 15.7549) scale(0.000906322) rotate(-120.259)"/>
<use xlink:href="#stroke2_1538_2032" transform="translate(22.2726 15.6183) scale(0.000509361) rotate(100.695)"/>
<use xlink:href="#stroke2_1538_2032" transform="translate(22.0001 15.9762) scale(0.0010224) rotate(-73.0522)"/>
<use xlink:href="#stroke2_1538_2032" transform="translate(22.4229 16.237) scale(0.00109554) rotate(179.59)"/>
<use xlink:href="#stroke2_1538_2032" transform="translate(22.2878 16.3398) scale(0.000597523) rotate(-138.115)"/>
<use xlink:href="#stroke2_1538_2032" transform="translate(22.5408 16.3174) scale(0.00111789) rotate(117.397)"/>
<use xlink:href="#stroke2_1538_2032" transform="translate(22.4231 16.5829) scale(0.000626465) rotate(149.138)"/>
<use xlink:href="#stroke2_1538_2032" transform="translate(22.4467 16.6571) scale(0.000711647) rotate(117.653)"/>
<use xlink:href="#stroke2_1538_2032" transform="translate(22.2999 16.7256) scale(0.000544484) rotate(59.2347)"/>
<use xlink:href="#stroke2_1538_2032" transform="translate(22.3923 16.9822) scale(0.000580076) rotate(127.812)"/>
<use xlink:href="#stroke2_1538_2032" transform="translate(22.0567 17.2083) scale(0.00070601) rotate(-66.3247)"/>
<use xlink:href="#stroke2_1538_2032" transform="translate(22.2275 17.4831) scale(0.000772975) rotate(-153.295)"/>
<use xlink:href="#stroke2_1538_2032" transform="translate(22.0066 17.2996) scale(0.000875167) rotate(12.7812)"/>
<use xlink:href="#stroke2_1538_2032" transform="translate(22.1702 17.5447) scale(0.000601288) rotate(107.354)"/>
<use xlink:href="#stroke2_1538_2032" transform="translate(21.7662 17.5799) scale(0.00116381) rotate(1.98323)"/>
<use xlink:href="#stroke2_1538_2032" transform="translate(21.9274 17.7739) scale(0.000636018) rotate(69.5894)"/>
<use xlink:href="#stroke2_1538_2032" transform="translate(21.6237 17.9168) scale(0.000752975) rotate(-5.03186)"/>
<use xlink:href="#stroke2_1538_2032" transform="translate(21.6775 18.4001) scale(0.000999103) rotate(-145.34)"/>
<use xlink:href="#stroke2_1538_2032" transform="translate(21.4382 18.1532) scale(0.000769778) rotate(10.0598)"/>
<use xlink:href="#stroke2_1538_2032" transform="translate(21.458 18.278) scale(0.000461096) rotate(62.9915)"/>
<use xlink:href="#stroke2_1538_2032" transform="translate(21.3484 18.6134) scale(0.000582412) rotate(-149.909)"/>
<use xlink:href="#stroke2_1538_2032" transform="translate(21.4089 18.6163) scale(0.00100825) rotate(138.163)"/>
<use xlink:href="#stroke2_1538_2032" transform="translate(21.1907 18.7612) scale(0.000843355) rotate(162.071)"/>
<use xlink:href="#stroke2_1538_2032" transform="translate(20.9784 18.5842) scale(0.000907727) rotate(75.3599)"/>
<use xlink:href="#stroke2_1538_2032" transform="translate(20.8335 18.8695) scale(0.00050571) rotate(165.528)"/>
<use xlink:href="#stroke2_1538_2032" transform="translate(20.5241 19.0492) scale(0.000776079) rotate(-116.885)"/>
<use xlink:href="#stroke2_1538_2032" transform="translate(20.5393 18.7564) scale(0.000896069) rotate(80.8692)"/>
<use xlink:href="#stroke2_1538_2032" transform="translate(20.4165 19.0914) scale(0.000913217) rotate(170.046)"/>
<use xlink:href="#stroke2_1538_2032" transform="translate(20.2374 18.8346) scale(0.000990106) rotate(93.7714)"/>
<use xlink:href="#stroke2_1538_2032" transform="translate(19.8215 19.1517) scale(0.0007831) rotate(-111.612)"/>
<use xlink:href="#stroke2_1538_2032" transform="translate(19.6057 19.0638) scale(0.000660935) rotate(-73.8187)"/>
<use xlink:href="#stroke2_1538_2032" transform="translate(19.5001 19.1799) scale(0.000864523) rotate(-115.465)"/>
<use xlink:href="#stroke2_1538_2032" transform="translate(19.3921 19.2125) scale(0.00104117) rotate(-135.653)"/>
<use xlink:href="#stroke2_1538_2032" transform="translate(19.3535 18.895) scale(0.000509043) rotate(104.755)"/>
<use xlink:href="#stroke2_1538_2032" transform="translate(19.0342 19.0654) scale(0.000651936) rotate(-110.826)"/>
<use xlink:href="#stroke2_1538_2032" transform="translate(18.8631 19.1048) scale(0.000896895) rotate(-118.441)"/>
<use xlink:href="#stroke2_1538_2032" transform="translate(18.8151 18.7257) scale(0.000744862) rotate(61.6718)"/>
<use xlink:href="#stroke2_1538_2032" transform="translate(18.5414 19.0849) scale(0.000972128) rotate(-124.792)"/>
<use xlink:href="#stroke2_1538_2032" transform="translate(18.1692 18.7237) scale(0.00110624) rotate(-15.5843)"/>
<use xlink:href="#stroke2_1538_2032" transform="translate(18.1267 19.0081) scale(0.000824507) rotate(-105.365)"/>
<use xlink:href="#stroke2_1538_2032" transform="translate(17.9565 18.762) scale(0.00060786) rotate(-10.7088)"/>
<use xlink:href="#stroke2_1538_2032" transform="translate(17.895 18.7) scale(0.000660395) rotate(35.5821)"/>
<use xlink:href="#stroke2_1538_2032" transform="translate(17.7075 18.9463) scale(0.000495867) rotate(-98.5831)"/>
<use xlink:href="#stroke2_1538_2032" transform="translate(17.729 18.9458) scale(0.000626273) rotate(178.625)"/>
<use xlink:href="#stroke2_1538_2032" transform="translate(17.3374 18.8564) scale(0.000591439) rotate(-44.3108)"/>
<use xlink:href="#stroke2_1538_2032" transform="translate(17.2093 18.8199) scale(0.000581205) rotate(-17.8309)"/>
<use xlink:href="#stroke2_1538_2032" transform="translate(17.2963 18.9866) scale(0.000646805) rotate(171.434)"/>
<use xlink:href="#stroke2_1538_2032" transform="translate(16.9862 19.2224) scale(0.00115049) rotate(-135.343)"/>
<use xlink:href="#stroke2_1538_2032" transform="translate(16.9597 19.1129) scale(0.000779604) rotate(177.559)"/>
<use xlink:href="#stroke2_1538_2032" transform="translate(16.6697 18.892) scale(0.000552) rotate(37.8253)"/>
<use xlink:href="#stroke2_1538_2032" transform="translate(16.6469 18.8546) scale(0.00121599) rotate(75.7834)"/>
<use xlink:href="#stroke2_1538_2032" transform="translate(16.5566 19.2681) scale(0.00106658) rotate(156.212)"/>
<use xlink:href="#stroke2_1538_2032" transform="translate(16.2476 19.1025) scale(0.00068562) rotate(65.9727)"/>
<use xlink:href="#stroke2_1538_2032" transform="translate(16.0439 19.5891) scale(0.00103322) rotate(-139.073)"/>
<use xlink:href="#stroke2_1538_2032" transform="translate(15.7282 19.2599) scale(0.00100695) rotate(6.25988)"/>
<use xlink:href="#stroke2_1538_2032" transform="translate(15.5606 19.3544) scale(0.00121447) rotate(8.35331)"/>
<use xlink:href="#stroke2_1538_2032" transform="translate(15.6599 19.5773) scale(0.000457296) rotate(63.7732)"/>
<use xlink:href="#stroke2_1538_2032" transform="translate(15.2915 19.6747) scale(0.00100804) rotate(-12.6206)"/>
<use xlink:href="#stroke2_1538_2032" transform="translate(15.2366 19.7945) scale(0.00092849) rotate(0.147262)"/>
<use xlink:href="#stroke2_1538_2032" transform="translate(15.1971 19.8659) scale(0.00106614) rotate(25.7053)"/>
<use xlink:href="#stroke2_1538_2032" transform="translate(15.0389 20.1744) scale(0.000574859) rotate(-31.5683)"/>
<use xlink:href="#stroke2_1538_2032" transform="translate(15.2541 20.3294) scale(0.000650759) rotate(127.306)"/>
<use xlink:href="#stroke2_1538_2032" transform="translate(14.8828 20.3193) scale(0.000914458) rotate(9.19121)"/>
<use xlink:href="#stroke2_1538_2032" transform="translate(14.8428 20.5454) scale(0.000455711) rotate(-8.93666)"/>
<use xlink:href="#stroke2_1538_2032" transform="translate(15.0266 20.8511) scale(0.000865335) rotate(160.88)"/>
<use xlink:href="#stroke2_1538_2032" transform="translate(14.7793 20.7654) scale(0.000521034) rotate(43.7984)"/>
<use xlink:href="#stroke2_1538_2032" transform="translate(14.8147 20.8688) scale(0.000878789) rotate(74.6738)"/>
<use xlink:href="#stroke2_1538_2032" transform="translate(14.6524 21.0418) scale(0.000584917) rotate(49.2392)"/>
<use xlink:href="#stroke2_1538_2032" transform="translate(14.5942 21.6306) scale(0.0011957) rotate(-145.112)"/>
<use xlink:href="#stroke2_1538_2032" transform="translate(14.4453 21.3693) scale(0.000576587) rotate(21.6556)"/>
<use xlink:href="#stroke2_1538_2032" transform="translate(14.5584 21.7096) scale(0.000594272) rotate(167.515)"/>
<use xlink:href="#stroke2_1538_2032" transform="translate(14.5117 21.7613) scale(0.000555806) rotate(132.246)"/>
<use xlink:href="#stroke2_1538_2032" transform="translate(14.4495 21.9991) scale(0.000653301) rotate(171.052)"/>
<use xlink:href="#stroke2_1538_2032" transform="translate(14.255 22.3399) scale(0.00111134) rotate(-138.525)"/>
<use xlink:href="#stroke2_1538_2032" transform="translate(14.1473 22.3436) scale(0.000561657) rotate(-114.738)"/>
<use xlink:href="#stroke2_1538_2032" transform="translate(14.1346 22.5473) scale(0.000830074) rotate(-148.146)"/>
<use xlink:href="#stroke2_1538_2032" transform="translate(14.1281 22.3761) scale(0.000738181) rotate(94.8737)"/>
<use xlink:href="#stroke2_1538_2032" transform="translate(13.7307 22.6773) scale(0.000765851) rotate(-64.681)"/>
<use xlink:href="#stroke2_1538_2032" transform="translate(13.9118 22.6475) scale(0.000592594) rotate(97.1994)"/>
<use xlink:href="#stroke2_1538_2032" transform="translate(13.4852 22.8725) scale(0.000823183) rotate(-54.5026)"/>
<use xlink:href="#stroke2_1538_2032" transform="translate(13.656 22.8656) scale(0.000467125) rotate(97.398)"/>
<use xlink:href="#stroke2_1538_2032" transform="translate(13.3373 22.9983) scale(0.000507786) rotate(-37.4251)"/>
<use xlink:href="#stroke2_1538_2032" transform="translate(13.4829 23.2511) scale(0.000941354) rotate(172.008)"/>
<use xlink:href="#stroke2_1538_2032" transform="translate(13.0186 23.3006) scale(0.00076815) rotate(-74.5578)"/>
<use xlink:href="#stroke2_1538_2032" transform="translate(13.0411 23.1098) scale(0.000717843) rotate(48.4994)"/>
<use xlink:href="#stroke2_1538_2032" transform="translate(12.941 23.5524) scale(0.000991475) rotate(-157.131)"/>
<use xlink:href="#stroke2_1538_2032" transform="translate(12.8076 23.461) scale(0.000470364) rotate(177.018)"/>
<use xlink:href="#stroke2_1538_2032" transform="translate(12.6928 23.473) scale(0.000514727) rotate(162.98)"/>
<use xlink:href="#stroke2_1538_2032" transform="translate(12.4339 23.2147) scale(0.001156) rotate(51.3345)"/>
<use xlink:href="#stroke2_1538_2032" transform="translate(12.0882 23.3718) scale(0.000809839) rotate(-5.49753)"/>
<use xlink:href="#stroke2_1538_2032" transform="translate(12.1862 23.59) scale(0.000638615) rotate(178.452)"/>
<use xlink:href="#stroke2_1538_2032" transform="translate(11.8485 23.5646) scale(0.000496856) rotate(-85.3043)"/>
<use xlink:href="#stroke2_1538_2032" transform="translate(11.9084 23.4439) scale(0.000519092) rotate(113.156)"/>
<use xlink:href="#stroke2_1538_2032" transform="translate(11.4119 23.6247) scale(0.00104134) rotate(-82.0847)"/>
<use xlink:href="#stroke2_1538_2032" transform="translate(11.3111 23.6416) scale(0.00102805) rotate(-106.623)"/>
<use xlink:href="#stroke2_1538_2032" transform="translate(11.1359 23.5116) scale(0.000730262) rotate(-84.7238)"/>
<use xlink:href="#stroke2_1538_2032" transform="translate(11.0753 23.1415) scale(0.000864706) rotate(35.042)"/>
<use xlink:href="#stroke2_1538_2032" transform="translate(11.0862 23.1149) scale(0.000928258) rotate(85.9852)"/>
<use xlink:href="#stroke2_1538_2032" transform="translate(10.852 23.0892) scale(0.000549893) rotate(62.8075)"/>
<use xlink:href="#stroke2_1538_2032" transform="translate(10.4781 23.0963) scale(0.000835345) rotate(-41.2703)"/>
<use xlink:href="#stroke2_1538_2032" transform="translate(10.5845 22.9143) scale(0.000505041) rotate(57.5078)"/>
<use xlink:href="#stroke2_1538_2032" transform="translate(10.3857 23.1017) scale(0.000684923) rotate(-121.967)"/>
<use xlink:href="#stroke2_1538_2032" transform="translate(10.1308 22.9646) scale(0.000921515) rotate(-86.1164)"/>
<use xlink:href="#stroke2_1538_2032" transform="translate(10.2818 22.6044) scale(0.000607397) rotate(83.2677)"/>
<use xlink:href="#stroke2_1538_2032" transform="translate(10.1557 22.4569) scale(0.00065936) rotate(68.5534)"/>
<use xlink:href="#stroke2_1538_2032" transform="translate(9.80218 22.6102) scale(0.00102127) rotate(-87.4259)"/>
<use xlink:href="#stroke2_1538_2032" transform="translate(9.76897 22.3673) scale(0.000564581) rotate(-61.3568)"/>
<use xlink:href="#stroke2_1538_2032" transform="translate(9.97289 22.1651) scale(0.000781298) rotate(123.127)"/>
<use xlink:href="#stroke2_1538_2032" transform="translate(9.51817 22.0103) scale(0.000918407) rotate(-39.3566)"/>
<use xlink:href="#stroke2_1538_2032" transform="translate(9.59068 21.8076) scale(0.000528927) rotate(6.62397)"/>
<use xlink:href="#stroke2_1538_2032" transform="translate(9.48055 21.6866) scale(0.000625912) rotate(-13.0146)"/>
<use xlink:href="#stroke2_1538_2032" transform="translate(9.72409 21.6268) scale(0.000653448) rotate(139.237)"/>
<use xlink:href="#stroke2_1538_2032" transform="translate(9.70253 21.5696) scale(0.000917223) rotate(170.881)"/>
<use xlink:href="#stroke2_1538_2032" transform="translate(9.73147 21.1995) scale(0.00102032) rotate(120.021)"/>
<use xlink:href="#stroke2_1538_2032" transform="translate(9.41166 21.0533) scale(0.000473554) rotate(-9.95644)"/>
<use xlink:href="#stroke2_1538_2032" transform="translate(9.51629 20.8166) scale(0.000635692) rotate(47.1673)"/>
<use xlink:href="#stroke2_1538_2032" transform="translate(9.53232 20.641) scale(0.000712724) rotate(53.1008)"/>
<use xlink:href="#stroke2_1538_2032" transform="translate(9.61177 20.7643) scale(0.000556824) rotate(-173.518)"/>
<use xlink:href="#stroke2_1538_2032" transform="translate(9.51325 20.2797) scale(0.000887925) rotate(37.4731)"/>
<use xlink:href="#stroke2_1538_2032" transform="translate(9.39328 20.4017) scale(0.000954387) rotate(-68.3891)"/>
<use xlink:href="#stroke2_1538_2032" transform="translate(9.49206 20.2885) scale(0.000933527) rotate(-85.3122)"/>
<use xlink:href="#stroke2_1538_2032" transform="translate(9.71874 19.7762) scale(0.000892523) rotate(44.6543)"/>
<use xlink:href="#stroke2_1538_2032" transform="translate(9.64908 19.9501) scale(0.000736948) rotate(-88.0761)"/>
<use xlink:href="#stroke2_1538_2032" transform="translate(9.83107 19.8753) scale(0.000761881) rotate(-120.815)"/>
<use xlink:href="#stroke2_1538_2032" transform="translate(10.1163 19.7337) scale(0.000981625) rotate(-173.369)"/>
<use xlink:href="#stroke2_1538_2032" transform="translate(10.1992 19.5857) scale(0.00087227) rotate(-170.343)"/>
<use xlink:href="#stroke2_1538_2032" transform="translate(10.3379 19.1518) scale(0.00084997) rotate(90.1034)"/>
<use xlink:href="#stroke2_1538_2032" transform="translate(10.2664 19.3282) scale(0.00064504) rotate(-121.597)"/>
<use xlink:href="#stroke2_1538_2032" transform="translate(10.4949 19.2169) scale(0.00077095) rotate(-163.142)"/>
<use xlink:href="#stroke2_1538_2032" transform="translate(10.3887 18.7651) scale(0.00105479) rotate(-0.0307065)"/>
<use xlink:href="#stroke2_1538_2032" transform="translate(10.6646 18.7567) scale(0.000476197) rotate(36.487)"/>
<use xlink:href="#stroke2_1538_2032" transform="translate(10.8663 19.0048) scale(0.000922709) rotate(-142.744)"/>
<use xlink:href="#stroke2_1538_2032" transform="translate(10.8271 18.6371) scale(0.000757384) rotate(-18.8696)"/>
<use xlink:href="#stroke2_1538_2032" transform="translate(11.206 18.7256) scale(0.000499872) rotate(171.442)"/>
<use xlink:href="#stroke2_1538_2032" transform="translate(11.2451 18.4428) scale(0.000707599) rotate(37.447)"/>
<use xlink:href="#stroke2_1538_2032" transform="translate(11.4405 18.7707) scale(0.00084121) rotate(-138.269)"/>
<use xlink:href="#stroke2_1538_2032" transform="translate(11.6276 18.4279) scale(0.000524015) rotate(72.1692)"/>
<use xlink:href="#stroke2_1538_2032" transform="translate(11.6599 18.3998) scale(0.000555302) rotate(19.0192)"/>
<use xlink:href="#stroke2_1538_2032" transform="translate(11.7329 18.605) scale(0.000727295) rotate(-78.6028)"/>
<use xlink:href="#stroke2_1538_2032" transform="translate(11.8174 18.4732) scale(0.00105982) rotate(-38.8502)"/>
<use xlink:href="#stroke2_1538_2032" transform="translate(12.0279 18.4722) scale(0.000932224) rotate(-31.7551)"/>
<use xlink:href="#stroke2_1538_2032" transform="translate(12.4646 18.6081) scale(0.000503265) rotate(177.219)"/>
<use xlink:href="#stroke2_1538_2032" transform="translate(12.3739 18.5481) scale(0.000696297) rotate(-46.33)"/>
<use xlink:href="#stroke2_1538_2032" transform="translate(12.7421 18.6752) scale(0.000506726) rotate(-170.12)"/>
<use xlink:href="#stroke2_1538_2032" transform="translate(12.904 18.5393) scale(0.000470386) rotate(99.9607)"/>
<use xlink:href="#stroke2_1538_2032" transform="translate(12.9641 18.7914) scale(0.000782982) rotate(-131.17)"/>
<use xlink:href="#stroke2_1538_2032" transform="translate(13.4087 18.5251) scale(0.00112586) rotate(109.335)"/>
<use xlink:href="#stroke2_1538_2032" transform="translate(13.1331 18.8064) scale(0.00119796) rotate(-78.3485)"/>
<use xlink:href="#stroke2_1538_2032" transform="translate(13.5379 18.8247) scale(0.000785103) rotate(-136.226)"/>
<use xlink:href="#stroke2_1538_2032" transform="translate(13.4633 18.6564) scale(0.00114552) rotate(-43.2707)"/>
<use xlink:href="#stroke2_1538_2032" transform="translate(13.7237 18.6484) scale(0.000718907) rotate(-39.2249)"/>
<use xlink:href="#stroke2_1538_2032" transform="translate(13.8821 18.6958) scale(0.000765273) rotate(-62.5934)"/>
<use xlink:href="#stroke2_1538_2032" transform="translate(14.0922 18.7175) scale(0.000533887) rotate(-76.9156)"/>
<use xlink:href="#stroke2_1538_2032" transform="translate(14.2638 18.7392) scale(0.000566624) rotate(-97.6648)"/>
<use xlink:href="#stroke2_1538_2032" transform="translate(14.7403 18.4686) scale(0.00109081) rotate(97.4076)"/>
<use xlink:href="#stroke2_1538_2032" transform="translate(14.5232 18.4086) scale(0.00107422) rotate(-6.85521)"/>
<use xlink:href="#stroke2_1538_2032" transform="translate(14.814 18.3889) scale(0.000748969) rotate(21.6854)"/>
<use xlink:href="#stroke2_1538_2032" transform="translate(15.17 18.2096) scale(0.00122414) rotate(64.6579)"/>
<use xlink:href="#stroke2_1538_2032" transform="translate(15.289 18.6985) scale(0.00119702) rotate(-141.055)"/>
<use xlink:href="#stroke2_1538_2032" transform="translate(15.6378 18.5224) scale(0.00115633) rotate(177.471)"/>
<use xlink:href="#stroke2_1538_2032" transform="translate(15.5408 18.0216) scale(0.000988968) rotate(30.0563)"/>
<use xlink:href="#stroke2_1538_2032" transform="translate(15.7125 18.3614) scale(0.000793716) rotate(-123.372)"/>
<use xlink:href="#stroke2_1538_2032" transform="translate(16.1685 18.1068) scale(0.00116707) rotate(146.339)"/>
<use xlink:href="#stroke2_1538_2032" transform="translate(16.2668 17.8054) scale(0.00106675) rotate(100.025)"/>
<use xlink:href="#stroke2_1538_2032" transform="translate(16.0958 17.7034) scale(0.000626532) rotate(16.4556)"/>
<use xlink:href="#stroke2_1538_2032" transform="translate(16.2092 17.9452) scale(0.00116209) rotate(-116.873)"/>
<use xlink:href="#stroke2_1538_2032" transform="translate(16.3021 17.6923) scale(0.000666762) rotate(-92.9739)"/>
<use xlink:href="#stroke2_1538_2032" transform="translate(16.5663 17.5599) scale(0.000516626) rotate(-172.667)"/>
<use xlink:href="#stroke2_1538_2032" transform="translate(16.6356 17.5487) scale(0.00105592) rotate(-145.11)"/>
<use xlink:href="#stroke2_1538_2032" transform="translate(16.8411 17.2589) scale(0.000782526) rotate(164.778)"/>
<use xlink:href="#stroke2_1538_2032" transform="translate(16.9802 16.9892) scale(0.000869366) rotate(124.603)"/>
<use xlink:href="#stroke2_1538_2032" transform="translate(17.072 17.0043) scale(0.00105782) rotate(170.158)"/>
<use xlink:href="#stroke2_1538_2032" transform="translate(16.9975 16.6439) scale(0.000470088) rotate(70.3737)"/>
<use xlink:href="#stroke2_1538_2032" transform="translate(17.0031 16.8239) scale(0.00109114) rotate(-129.656)"/>
<use xlink:href="#stroke2_1538_2032" transform="translate(17.3629 16.387) scale(0.00107682) rotate(131.454)"/>
<use xlink:href="#stroke2_1538_2032" transform="translate(17.0771 16.2219) scale(0.000453665) rotate(-16.3014)"/>
<use xlink:href="#stroke2_1538_2032" transform="translate(17.336 15.8817) scale(0.00102918) rotate(65.59)"/>
<use xlink:href="#stroke2_1538_2032" transform="translate(17.4147 16.0518) scale(0.000585102) rotate(171.295)"/>
<use xlink:href="#stroke2_1538_2032" transform="translate(17.3772 16.0022) scale(0.000774345) rotate(-135.034)"/>
<use xlink:href="#stroke2_1538_2032" transform="translate(17.1813 15.5621) scale(0.00113468) rotate(-29.7871)"/>
<use xlink:href="#stroke2_1538_2032" transform="translate(17.6408 15.3844) scale(0.000735339) rotate(97.8921)"/>
<use xlink:href="#stroke2_1538_2032" transform="translate(17.7293 15.0598) scale(0.00120772) rotate(74.7679)"/>
<use xlink:href="#stroke2_1538_2032" transform="translate(17.7068 15.0405) scale(0.000597475) rotate(62.7508)"/>
<use xlink:href="#stroke2_1538_2032" transform="translate(17.7993 15.2713) scale(0.00109534) rotate(-141.441)"/>
<use xlink:href="#stroke2_1538_2032" transform="translate(18.1743 14.9056) scale(0.0011692) rotate(142.346)"/>
<use xlink:href="#stroke2_1538_2032" transform="translate(18.1556 14.9855) scale(0.00122898) rotate(-158.746)"/>
<use xlink:href="#stroke2_1538_2032" transform="translate(18.3137 14.654) scale(0.000717148) rotate(152.281)"/>
<use xlink:href="#stroke2_1538_2032" transform="translate(18.3693 14.4697) scale(0.000492371) rotate(114.211)"/>
<use xlink:href="#stroke2_1538_2032" transform="translate(18.3441 14.5335) scale(0.000463575) rotate(-118.88)"/>
<use xlink:href="#stroke2_1538_2032" transform="translate(18.6325 14.5577) scale(0.00100524) rotate(-159.423)"/>
<use xlink:href="#stroke2_1538_2032" transform="translate(18.6887 14.3743) scale(0.000481647) rotate(-152.494)"/>
<use xlink:href="#stroke2_1538_2032" transform="translate(18.755 14.3268) scale(0.000572165) rotate(-121.741)"/>
<use xlink:href="#stroke2_1538_2032" transform="translate(18.9697 13.8897) scale(0.00102715) rotate(46.3122)"/>
<use xlink:href="#stroke2_1538_2032" transform="translate(18.9601 14.0735) scale(0.000632959) rotate(-41.5501)"/>
<use xlink:href="#stroke2_1538_2032" transform="translate(19.1197 14.1799) scale(0.000899047) rotate(-86.8765)"/>
<use xlink:href="#stroke2_1538_2032" transform="translate(19.3346 14.2432) scale(0.00107472) rotate(-103.537)"/>
<use xlink:href="#stroke2_1538_2032" transform="translate(19.8365 13.7661) scale(0.00122601) rotate(80.2463)"/>
<use xlink:href="#stroke2_1538_2032" transform="translate(19.6876 13.9613) scale(0.000472091) rotate(-32.2632)"/>
<path d="M4.20605 4.99902C5.58677 4.99902 6.70605 6.11929 6.70605 7.5C6.70594 8.09153 6.49977 8.63445 6.15625 9.0625C4.31974 11.3549 4.3207 12.6451 6.15723 14.9375C6.50084 15.3657 6.70605 15.9093 6.70605 16.501C6.70579 17.8815 5.5866 19.001 4.20605 19.001C2.82556 19.0009 1.70632 17.8814 1.70605 16.501C1.70605 15.9091 1.91305 15.3657 2.25684 14.9375H2.25488C4.09141 12.6451 4.09141 11.3549 2.25488 9.0625H2.25684C1.91314 8.6344 1.70617 8.09169 1.70605 7.5C1.70605 6.11933 2.8254 4.99909 4.20605 4.99902Z" fill="#1A1A1A"/>
<use xlink:href="#stroke3_1538_2032" transform="translate(4.31687 5.00623) scale(0.000474929) rotate(138.006)"/>
<use xlink:href="#stroke3_1538_2032" transform="translate(4.60466 5.04396) scale(0.000955818) rotate(146.628)"/>
<use xlink:href="#stroke3_1538_2032" transform="translate(4.57504 4.91315) scale(0.000457533) rotate(72.4531)"/>
<use xlink:href="#stroke3_1538_2032" transform="translate(4.55128 4.93215) scale(0.000734887) rotate(-5.45454)"/>
<use xlink:href="#stroke3_1538_2032" transform="translate(4.9598 5.07639) scale(0.000565208) rotate(138.178)"/>
<use xlink:href="#stroke3_1538_2032" transform="translate(4.85006 5.11538) scale(0.000465493) rotate(-45.8915)"/>
<use xlink:href="#stroke3_1538_2032" transform="translate(4.94931 5.20916) scale(0.000662997) rotate(-57.4955)"/>
<use xlink:href="#stroke3_1538_2032" transform="translate(5.11032 5.23524) scale(0.000588905) rotate(-53.9197)"/>
<use xlink:href="#stroke3_1538_2032" transform="translate(5.19901 5.23955) scale(0.000894005) rotate(-28.0941)"/>
<use xlink:href="#stroke3_1538_2032" transform="translate(5.43381 5.26115) scale(0.00065256) rotate(3.01146)"/>
<use xlink:href="#stroke3_1538_2032" transform="translate(5.68629 5.59765) scale(0.000585044) rotate(-149.381)"/>
<use xlink:href="#stroke3_1538_2032" transform="translate(5.99556 5.75428) scale(0.00110257) rotate(-179.83)"/>
<use xlink:href="#stroke3_1538_2032" transform="translate(5.75714 5.71045) scale(0.000793003) rotate(-54.9195)"/>
<use xlink:href="#stroke3_1538_2032" transform="translate(6.06015 5.57001) scale(0.00113365) rotate(44.2077)"/>
<use xlink:href="#stroke3_1538_2032" transform="translate(6.09814 5.82484) scale(0.000567201) rotate(14.0159)"/>
<use xlink:href="#stroke3_1538_2032" transform="translate(6.18587 5.94014) scale(0.000581649) rotate(10.6387)"/>
<use xlink:href="#stroke3_1538_2032" transform="translate(6.22981 6.25155) scale(0.00053253) rotate(-80.6704)"/>
<use xlink:href="#stroke3_1538_2032" transform="translate(6.63563 6.31536) scale(0.000888967) rotate(131.303)"/>
<use xlink:href="#stroke3_1538_2032" transform="translate(6.45124 6.34713) scale(0.000480831) rotate(25.0529)"/>
<use xlink:href="#stroke3_1538_2032" transform="translate(6.40954 6.81937) scale(0.000980545) rotate(-101.688)"/>
<use xlink:href="#stroke3_1538_2032" transform="translate(6.38473 6.89904) scale(0.00099217) rotate(-70.5222)"/>
<use xlink:href="#stroke3_1538_2032" transform="translate(6.55574 6.84623) scale(0.000581547) rotate(-2.33484)"/>
<use xlink:href="#stroke3_1538_2032" transform="translate(6.71017 7.25719) scale(0.000702474) rotate(-151.39)"/>
<use xlink:href="#stroke3_1538_2032" transform="translate(6.6194 7.32828) scale(0.000477156) rotate(-100.461)"/>
<use xlink:href="#stroke3_1538_2032" transform="translate(6.61734 7.2399) scale(0.000768228) rotate(17.2598)"/>
<use xlink:href="#stroke3_1538_2032" transform="translate(6.78523 7.3839) scale(0.000904199) rotate(69.7284)"/>
<use xlink:href="#stroke3_1538_2032" transform="translate(6.74775 7.6091) scale(0.00049284) rotate(65.1912)"/>
<use xlink:href="#stroke3_1538_2032" transform="translate(6.8993 7.90325) scale(0.000947439) rotate(136.703)"/>
<use xlink:href="#stroke3_1538_2032" transform="translate(6.49678 8.19308) scale(0.000841809) rotate(-88.1533)"/>
<use xlink:href="#stroke3_1538_2032" transform="translate(6.7052 8.49718) scale(0.00117046) rotate(-161.104)"/>
<use xlink:href="#stroke3_1538_2032" transform="translate(6.30527 8.32213) scale(0.00100088) rotate(-21.2266)"/>
<use xlink:href="#stroke3_1538_2032" transform="translate(6.37069 8.62264) scale(0.00052561) rotate(-78.3187)"/>
<use xlink:href="#stroke3_1538_2032" transform="translate(6.32727 8.4923) scale(0.00106162) rotate(27.5777)"/>
<use xlink:href="#stroke3_1538_2032" transform="translate(6.29358 8.63268) scale(0.0010874) rotate(45.3775)"/>
<use xlink:href="#stroke3_1538_2032" transform="translate(6.21598 9.20424) scale(0.00077035) rotate(-141.173)"/>
<use xlink:href="#stroke3_1538_2032" transform="translate(6.11873 9.26574) scale(0.000561918) rotate(-143.906)"/>
<use xlink:href="#stroke3_1538_2032" transform="translate(6.18411 9.42034) scale(0.00110382) rotate(168.177)"/>
<use xlink:href="#stroke3_1538_2032" transform="translate(5.69014 9.24433) scale(0.00117935) rotate(3.02385)"/>
<use xlink:href="#stroke3_1538_2032" transform="translate(5.68751 9.45927) scale(0.000570499) rotate(4.67942)"/>
<use xlink:href="#stroke3_1538_2032" transform="translate(5.6977 9.47143) scale(0.00103984) rotate(52.6447)"/>
<use xlink:href="#stroke3_1538_2032" transform="translate(5.34818 9.85475) scale(0.000977891) rotate(-41.3128)"/>
<use xlink:href="#stroke3_1538_2032" transform="translate(5.5979 9.89784) scale(0.000687113) rotate(99.8982)"/>
<use xlink:href="#stroke3_1538_2032" transform="translate(5.39131 9.94107) scale(0.000844877) rotate(46.5566)"/>
<use xlink:href="#stroke3_1538_2032" transform="translate(5.04241 10.2092) scale(0.00113415) rotate(-23.8308)"/>
<use xlink:href="#stroke3_1538_2032" transform="translate(5.09823 10.5164) scale(0.000605304) rotate(-78.584)"/>
<use xlink:href="#stroke3_1538_2032" transform="translate(5.06891 10.3741) scale(0.000982089) rotate(30.3321)"/>
<use xlink:href="#stroke3_1538_2032" transform="translate(4.99319 10.6458) scale(0.000488487) rotate(0.670106)"/>
<use xlink:href="#stroke3_1538_2032" transform="translate(4.77645 10.822) scale(0.00106722) rotate(-25.701)"/>
<use xlink:href="#stroke3_1538_2032" transform="translate(4.77513 11.0408) scale(0.000780471) rotate(-38.8792)"/>
<use xlink:href="#stroke3_1538_2032" transform="translate(5.04893 11.2237) scale(0.000649842) rotate(141.263)"/>
<use xlink:href="#stroke3_1538_2032" transform="translate(4.85026 11.5131) scale(0.000679236) rotate(-135.924)"/>
<use xlink:href="#stroke3_1538_2032" transform="translate(4.70867 11.3794) scale(0.000815381) rotate(2.92514)"/>
<use xlink:href="#stroke3_1538_2032" transform="translate(4.94683 11.6061) scale(0.000655911) rotate(107.893)"/>
<use xlink:href="#stroke3_1538_2032" transform="translate(4.75447 11.7022) scale(0.00049546) rotate(28.5832)"/>
<use xlink:href="#stroke3_1538_2032" transform="translate(4.6625 11.9543) scale(0.000464165) rotate(-46.9122)"/>
<use xlink:href="#stroke3_1538_2032" transform="translate(4.87109 11.9556) scale(0.000751969) rotate(69.8815)"/>
<use xlink:href="#stroke3_1538_2032" transform="translate(4.88643 12.1306) scale(0.00076221) rotate(78.2916)"/>
<use xlink:href="#stroke3_1538_2032" transform="translate(4.96861 12.6407) scale(0.00100394) rotate(-175.119)"/>
<use xlink:href="#stroke3_1538_2032" transform="translate(4.94714 12.4645) scale(0.000783722) rotate(75.4917)"/>
<use xlink:href="#stroke3_1538_2032" transform="translate(5.10854 12.7655) scale(0.000964362) rotate(125.696)"/>
<use xlink:href="#stroke3_1538_2032" transform="translate(4.86846 12.7867) scale(0.000795178) rotate(17.088)"/>
<use xlink:href="#stroke3_1538_2032" transform="translate(5.0797 13.2768) scale(0.000784584) rotate(-157.384)"/>
<use xlink:href="#stroke3_1538_2032" transform="translate(5.22311 13.4905) scale(0.00107225) rotate(-168.217)"/>
<use xlink:href="#stroke3_1538_2032" transform="translate(5.12808 13.6736) scale(0.000986621) rotate(-127.231)"/>
<use xlink:href="#stroke3_1538_2032" transform="translate(5.3109 13.8728) scale(0.00111649) rotate(-150.597)"/>
<use xlink:href="#stroke3_1538_2032" transform="translate(5.33468 13.846) scale(0.000474389) rotate(-140.354)"/>
<use xlink:href="#stroke3_1538_2032" transform="translate(5.6426 13.8098) scale(0.0011136) rotate(110.938)"/>
<use xlink:href="#stroke3_1538_2032" transform="translate(5.4885 14.1804) scale(0.000607472) rotate(-136.588)"/>
<use xlink:href="#stroke3_1538_2032" transform="translate(5.58149 14.2787) scale(0.000530818) rotate(-139.808)"/>
<use xlink:href="#stroke3_1538_2032" transform="translate(5.68824 14.5394) scale(0.000996073) rotate(-138.874)"/>
<use xlink:href="#stroke3_1538_2032" transform="translate(5.85102 14.5849) scale(0.000726579) rotate(-164.576)"/>
<use xlink:href="#stroke3_1538_2032" transform="translate(5.72069 14.6517) scale(0.000755824) rotate(-76.1269)"/>
<use xlink:href="#stroke3_1538_2032" transform="translate(5.83321 14.6725) scale(0.000545501) rotate(-43.0665)"/>
<use xlink:href="#stroke3_1538_2032" transform="translate(6.16701 14.7862) scale(0.000504464) rotate(132.961)"/>
<use xlink:href="#stroke3_1538_2032" transform="translate(6.24815 14.77) scale(0.00078918) rotate(77.6417)"/>
<use xlink:href="#stroke3_1538_2032" transform="translate(6.34988 14.9899) scale(0.000505562) rotate(113.123)"/>
<use xlink:href="#stroke3_1538_2032" transform="translate(6.37922 15.0387) scale(0.000573863) rotate(71.309)"/>
<use xlink:href="#stroke3_1538_2032" transform="translate(6.26573 15.3173) scale(0.000555591) rotate(-60.1781)"/>
<use xlink:href="#stroke3_1538_2032" transform="translate(6.30666 15.5973) scale(0.000915744) rotate(-90.1349)"/>
<use xlink:href="#stroke3_1538_2032" transform="translate(6.4429 15.4825) scale(0.000529731) rotate(3.19435)"/>
<use xlink:href="#stroke3_1538_2032" transform="translate(6.77102 15.6082) scale(0.000990975) rotate(97.3706)"/>
<use xlink:href="#stroke3_1538_2032" transform="translate(6.55645 15.7962) scale(0.000453889) rotate(6.57779)"/>
<use xlink:href="#stroke3_1538_2032" transform="translate(6.61549 15.9005) scale(0.000544231) rotate(25.2394)"/>
<use xlink:href="#stroke3_1538_2032" transform="translate(6.63654 16.3092) scale(0.000642766) rotate(-113.158)"/>
<use xlink:href="#stroke3_1538_2032" transform="translate(6.54855 16.4427) scale(0.000771763) rotate(-82.112)"/>
<use xlink:href="#stroke3_1538_2032" transform="translate(6.68609 16.762) scale(0.00103664) rotate(-128.508)"/>
<use xlink:href="#stroke3_1538_2032" transform="translate(6.54144 16.7834) scale(0.000770388) rotate(-78.8344)"/>
<use xlink:href="#stroke3_1538_2032" transform="translate(6.70029 16.932) scale(0.000469304) rotate(-144.647)"/>
<use xlink:href="#stroke3_1538_2032" transform="translate(6.53079 17.0436) scale(0.000640688) rotate(-72.6009)"/>
<use xlink:href="#stroke3_1538_2032" transform="translate(6.73322 17.1469) scale(0.000458641) rotate(154.179)"/>
<use xlink:href="#stroke3_1538_2032" transform="translate(6.75123 17.1609) scale(0.000910193) rotate(101.703)"/>
<use xlink:href="#stroke3_1538_2032" transform="translate(6.68134 17.4112) scale(0.000611151) rotate(129.161)"/>
<use xlink:href="#stroke3_1538_2032" transform="translate(6.36861 17.7541) scale(0.000854485) rotate(-110.795)"/>
<use xlink:href="#stroke3_1538_2032" transform="translate(6.17872 17.6768) scale(0.00090925) rotate(-29.9603)"/>
<use xlink:href="#stroke3_1538_2032" transform="translate(6.12498 17.9524) scale(0.000803649) rotate(-69.0431)"/>
<use xlink:href="#stroke3_1538_2032" transform="translate(6.08329 17.8639) scale(0.000749101) rotate(6.08524)"/>
<use xlink:href="#stroke3_1538_2032" transform="translate(5.86532 18.2725) scale(0.00104997) rotate(-75.6076)"/>
<use xlink:href="#stroke3_1538_2032" transform="translate(5.81803 18.1854) scale(0.000739016) rotate(-16.7488)"/>
<use xlink:href="#stroke3_1538_2032" transform="translate(5.92501 18.2651) scale(0.000493114) rotate(75.8768)"/>
<use xlink:href="#stroke3_1538_2032" transform="translate(5.88519 18.506) scale(0.000583886) rotate(152.19)"/>
<use xlink:href="#stroke3_1538_2032" transform="translate(5.83605 18.526) scale(0.000966984) rotate(120.148)"/>
<use xlink:href="#stroke3_1538_2032" transform="translate(5.2514 18.7489) scale(0.00094727) rotate(-70.432)"/>
<use xlink:href="#stroke3_1538_2032" transform="translate(5.41397 18.5465) scale(0.000995569) rotate(75.3597)"/>
<use xlink:href="#stroke3_1538_2032" transform="translate(5.26888 19.0134) scale(0.000948341) rotate(-172.113)"/>
<use xlink:href="#stroke3_1538_2032" transform="translate(4.90139 18.8026) scale(0.000531907) rotate(-7.65095)"/>
<use xlink:href="#stroke3_1538_2032" transform="translate(5.06016 18.8866) scale(0.00105962) rotate(127.4)"/>
<use xlink:href="#stroke3_1538_2032" transform="translate(4.65837 19.0835) scale(0.000546292) rotate(-128.462)"/>
<use xlink:href="#stroke3_1538_2032" transform="translate(4.43345 18.9003) scale(0.000552701) rotate(-4.74279)"/>
<use xlink:href="#stroke3_1538_2032" transform="translate(4.57308 19.0075) scale(0.000937731) rotate(133.622)"/>
<use xlink:href="#stroke3_1538_2032" transform="translate(4.20837 18.7877) scale(0.000936191) rotate(53.0794)"/>
<use xlink:href="#stroke3_1538_2032" transform="translate(4.03363 19.206) scale(0.000892934) rotate(-144.93)"/>
<use xlink:href="#stroke3_1538_2032" transform="translate(3.83098 18.7921) scale(0.000804643) rotate(43.3643)"/>
<use xlink:href="#stroke3_1538_2032" transform="translate(3.45202 18.9463) scale(0.000898103) rotate(-45.6264)"/>
<use xlink:href="#stroke3_1538_2032" transform="translate(3.4283 18.9412) scale(0.000453426) rotate(-63.4208)"/>
<use xlink:href="#stroke3_1538_2032" transform="translate(3.42092 18.9947) scale(0.000621793) rotate(-148.758)"/>
<use xlink:href="#stroke3_1538_2032" transform="translate(2.98406 18.7092) scale(0.00103809) rotate(-25.0972)"/>
<use xlink:href="#stroke3_1538_2032" transform="translate(2.82588 18.8954) scale(0.00119352) rotate(-88.0734)"/>
<use xlink:href="#stroke3_1538_2032" transform="translate(2.89266 18.4337) scale(0.000777378) rotate(43.4)"/>
<use xlink:href="#stroke3_1538_2032" transform="translate(2.65009 18.7267) scale(0.00100087) rotate(-111.832)"/>
<use xlink:href="#stroke3_1538_2032" transform="translate(2.50432 18.2234) scale(0.000933578) rotate(21.8511)"/>
<use xlink:href="#stroke3_1538_2032" transform="translate(2.38028 18.3615) scale(0.000543765) rotate(-69.9721)"/>
<use xlink:href="#stroke3_1538_2032" transform="translate(2.27394 18.2479) scale(0.000479657) rotate(-57.9338)"/>
<use xlink:href="#stroke3_1538_2032" transform="translate(2.09531 17.8579) scale(0.00115527) rotate(9.6257)"/>
<use xlink:href="#stroke3_1538_2032" transform="translate(2.34099 17.8207) scale(0.000865223) rotate(103.031)"/>
<use xlink:href="#stroke3_1538_2032" transform="translate(2.14956 17.7015) scale(0.000578017) rotate(79.4493)"/>
<use xlink:href="#stroke3_1538_2032" transform="translate(1.94135 17.7912) scale(0.000499458) rotate(-105.895)"/>
<use xlink:href="#stroke3_1538_2032" transform="translate(2.1838 17.3839) scale(0.00120531) rotate(109.483)"/>
<use xlink:href="#stroke3_1538_2032" transform="translate(1.66292 17.4813) scale(0.00106699) rotate(-83.9313)"/>
<use xlink:href="#stroke3_1538_2032" transform="translate(1.65045 16.904) scale(0.00116982) rotate(15.9806)"/>
<use xlink:href="#stroke3_1538_2032" transform="translate(1.67563 16.7876) scale(0.000871327) rotate(19.215)"/>
<use xlink:href="#stroke3_1538_2032" transform="translate(1.81785 16.7971) scale(0.000474216) rotate(112.388)"/>
<use xlink:href="#stroke3_1538_2032" transform="translate(1.72798 16.8052) scale(0.00045654) rotate(-136.691)"/>
<use xlink:href="#stroke3_1538_2032" transform="translate(1.57109 16.4551) scale(0.000648436) rotate(-8.93164)"/>
<use xlink:href="#stroke3_1538_2032" transform="translate(1.61382 16.1203) scale(0.00107421) rotate(23.7494)"/>
<use xlink:href="#stroke3_1538_2032" transform="translate(1.67064 16.4012) scale(0.000999818) rotate(-123.504)"/>
<use xlink:href="#stroke3_1538_2032" transform="translate(1.84585 15.9574) scale(0.000502401) rotate(92.8457)"/>
<use xlink:href="#stroke3_1538_2032" transform="translate(1.65408 16.0727) scale(0.00113674) rotate(-106.001)"/>
<use xlink:href="#stroke3_1538_2032" transform="translate(1.80054 15.5391) scale(0.000659391) rotate(34.9694)"/>
<use xlink:href="#stroke3_1538_2032" transform="translate(2.05154 15.4819) scale(0.000748746) rotate(114.95)"/>
<use xlink:href="#stroke3_1538_2032" transform="translate(2.13992 15.4693) scale(0.00087526) rotate(160.003)"/>
<use xlink:href="#stroke3_1538_2032" transform="translate(1.94375 15.0335) scale(0.000992769) rotate(12.9215)"/>
<use xlink:href="#stroke3_1538_2032" transform="translate(2.2327 15.0759) scale(0.000466242) rotate(117.046)"/>
<use xlink:href="#stroke3_1538_2032" transform="translate(2.37996 14.9526) scale(0.0007104) rotate(126.869)"/>
<use xlink:href="#stroke3_1538_2032" transform="translate(2.21168 14.6881) scale(0.000835936) rotate(8.71497)"/>
<use xlink:href="#stroke3_1538_2032" transform="translate(2.53697 14.7286) scale(0.00056254) rotate(135.905)"/>
<use xlink:href="#stroke3_1538_2032" transform="translate(2.58357 14.702) scale(0.00045478) rotate(178.545)"/>
<use xlink:href="#stroke3_1538_2032" transform="translate(2.71793 14.3467) scale(0.000794183) rotate(81.8773)"/>
<use xlink:href="#stroke3_1538_2032" transform="translate(2.54019 14.4201) scale(0.000726849) rotate(-64.631)"/>
<use xlink:href="#stroke3_1538_2032" transform="translate(2.89482 14.0798) scale(0.000770578) rotate(77.0316)"/>
<use xlink:href="#stroke3_1538_2032" transform="translate(3.11606 14.065) scale(0.00100076) rotate(133.604)"/>
<use xlink:href="#stroke3_1538_2032" transform="translate(2.93819 13.725) scale(0.000881432) rotate(32.2226)"/>
<use xlink:href="#stroke3_1538_2032" transform="translate(2.9038 13.8123) scale(0.000697466) rotate(-52.9066)"/>
<use xlink:href="#stroke3_1538_2032" transform="translate(3.04199 13.5139) scale(0.000709201) rotate(9.19299)"/>
<use xlink:href="#stroke3_1538_2032" transform="translate(3.42038 13.2709) scale(0.00117871) rotate(84.6679)"/>
<use xlink:href="#stroke3_1538_2032" transform="translate(3.16963 13.4848) scale(0.000976836) rotate(-91.3634)"/>
<use xlink:href="#stroke3_1538_2032" transform="translate(3.13605 13.0683) scale(0.00114143) rotate(-30.8732)"/>
<use xlink:href="#stroke3_1538_2032" transform="translate(3.58003 12.7683) scale(0.00099163) rotate(75.702)"/>
<use xlink:href="#stroke3_1538_2032" transform="translate(3.65058 12.6204) scale(0.000957183) rotate(83.5999)"/>
<use xlink:href="#stroke3_1538_2032" transform="translate(3.55577 12.8698) scale(0.00110489) rotate(-131.584)"/>
<use xlink:href="#stroke3_1538_2032" transform="translate(3.71423 12.4277) scale(0.000538864) rotate(115.528)"/>
<use xlink:href="#stroke3_1538_2032" transform="translate(3.85895 12.3269) scale(0.00103602) rotate(144.596)"/>
<use xlink:href="#stroke3_1538_2032" transform="translate(3.62765 12.2525) scale(0.000461198) rotate(-139.248)"/>
<use xlink:href="#stroke3_1538_2032" transform="translate(3.58966 11.7516) scale(0.000936341) rotate(34.8536)"/>
<use xlink:href="#stroke3_1538_2032" transform="translate(3.57546 11.999) scale(0.000890849) rotate(-124.999)"/>
<use xlink:href="#stroke3_1538_2032" transform="translate(3.63518 11.5303) scale(0.000531026) rotate(58.4821)"/>
<use xlink:href="#stroke3_1538_2032" transform="translate(3.46098 11.246) scale(0.00106304) rotate(15.4628)"/>
<use xlink:href="#stroke3_1538_2032" transform="translate(3.51203 11.5264) scale(0.00105075) rotate(-130.179)"/>
<use xlink:href="#stroke3_1538_2032" transform="translate(3.41634 11.2389) scale(0.000517832) rotate(-96.5697)"/>
<use xlink:href="#stroke3_1538_2032" transform="translate(3.2589 10.8328) scale(0.000964294) rotate(-6.78126)"/>
<use xlink:href="#stroke3_1538_2032" transform="translate(3.48263 10.8915) scale(0.000511721) rotate(156.264)"/>
<use xlink:href="#stroke3_1538_2032" transform="translate(3.21321 10.6809) scale(0.000504324) rotate(-30.455)"/>
<use xlink:href="#stroke3_1538_2032" transform="translate(3.38565 10.637) scale(0.000598684) rotate(158.931)"/>
<use xlink:href="#stroke3_1538_2032" transform="translate(3.06954 10.5274) scale(0.000598425) rotate(-80.4771)"/>
<use xlink:href="#stroke3_1538_2032" transform="translate(2.83899 10.2286) scale(0.00116321) rotate(-38.0386)"/>
<use xlink:href="#stroke3_1538_2032" transform="translate(2.98662 10.2841) scale(0.000616074) rotate(-123.083)"/>
<use xlink:href="#stroke3_1538_2032" transform="translate(2.97923 10.2207) scale(0.00106329) rotate(-147.422)"/>
<use xlink:href="#stroke3_1538_2032" transform="translate(2.98945 9.68843) scale(0.000908674) rotate(92.3337)"/>
<use xlink:href="#stroke3_1538_2032" transform="translate(2.89463 9.71637) scale(0.000667803) rotate(138.569)"/>
<use xlink:href="#stroke3_1538_2032" transform="translate(2.47255 9.52783) scale(0.00075731) rotate(-30.8329)"/>
<use xlink:href="#stroke3_1538_2032" transform="translate(2.78616 9.52642) scale(0.00118813) rotate(160.155)"/>
<use xlink:href="#stroke3_1538_2032" transform="translate(2.44992 9.4408) scale(0.000701546) rotate(-138.734)"/>
<use xlink:href="#stroke3_1538_2032" transform="translate(2.28357 9.29882) scale(0.0006347) rotate(-112.72)"/>
<use xlink:href="#stroke3_1538_2032" transform="translate(2.2396 8.93853) scale(0.000482511) rotate(33.3049)"/>
<use xlink:href="#stroke3_1538_2032" transform="translate(2.17963 9.14045) scale(0.0010017) rotate(-144.713)"/>
<use xlink:href="#stroke3_1538_2032" transform="translate(2.02941 8.90888) scale(0.000532623) rotate(-120.112)"/>
<use xlink:href="#stroke3_1538_2032" transform="translate(2.14597 8.82789) scale(0.00120838) rotate(-177.555)"/>
<use xlink:href="#stroke3_1538_2032" transform="translate(2.06567 8.49658) scale(0.000658587) rotate(145.757)"/>
<use xlink:href="#stroke3_1538_2032" transform="translate(1.96635 8.36564) scale(0.000485209) rotate(148.048)"/>
<use xlink:href="#stroke3_1538_2032" transform="translate(1.87929 8.29669) scale(0.000504519) rotate(-175.932)"/>
<use xlink:href="#stroke3_1538_2032" transform="translate(1.72013 8.17272) scale(0.000454884) rotate(-112.968)"/>
<use xlink:href="#stroke3_1538_2032" transform="translate(1.62641 8.0077) scale(0.00058039) rotate(-81.7661)"/>
<use xlink:href="#stroke3_1538_2032" transform="translate(1.59251 7.76049) scale(0.000595722) rotate(-38.6677)"/>
<use xlink:href="#stroke3_1538_2032" transform="translate(1.9853 7.6331) scale(0.00118556) rotate(145.267)"/>
<use xlink:href="#stroke3_1538_2032" transform="translate(1.85068 7.35071) scale(0.000652475) rotate(104.601)"/>
<use xlink:href="#stroke3_1538_2032" transform="translate(1.89574 7.25315) scale(0.000717777) rotate(129.327)"/>
<use xlink:href="#stroke3_1538_2032" transform="translate(1.91196 7.21019) scale(0.000893478) rotate(168.222)"/>
<use xlink:href="#stroke3_1538_2032" transform="translate(1.75517 6.76476) scale(0.000728893) rotate(40.817)"/>
<use xlink:href="#stroke3_1538_2032" transform="translate(1.89857 6.76424) scale(0.000467646) rotate(116.014)"/>
<use xlink:href="#stroke3_1538_2032" transform="translate(1.93442 6.59799) scale(0.000477741) rotate(95.1778)"/>
<use xlink:href="#stroke3_1538_2032" transform="translate(1.93232 6.6682) scale(0.000586982) rotate(-145.437)"/>
<use xlink:href="#stroke3_1538_2032" transform="translate(1.77226 6.25062) scale(0.000965419) rotate(-16.2492)"/>
<use xlink:href="#stroke3_1538_2032" transform="translate(2.22352 6.27937) scale(0.000785398) rotate(154.035)"/>
<use xlink:href="#stroke3_1538_2032" transform="translate(2.33066 5.94184) scale(0.000946514) rotate(99.9857)"/>
<use xlink:href="#stroke3_1538_2032" transform="translate(2.40005 5.8421) scale(0.000748591) rotate(96.6216)"/>
<use xlink:href="#stroke3_1538_2032" transform="translate(2.29397 5.72514) scale(0.000554482) rotate(15.5676)"/>
<use xlink:href="#stroke3_1538_2032" transform="translate(2.71958 5.56881) scale(0.00113907) rotate(106.9)"/>
<use xlink:href="#stroke3_1538_2032" transform="translate(2.35215 5.49075) scale(0.00122071) rotate(-32.9773)"/>
<use xlink:href="#stroke3_1538_2032" transform="translate(2.83802 5.40339) scale(0.000486922) rotate(98.3916)"/>
<use xlink:href="#stroke3_1538_2032" transform="translate(2.80674 5.58895) scale(0.00105876) rotate(-114.062)"/>
<use xlink:href="#stroke3_1538_2032" transform="translate(3.22304 5.52336) scale(0.00121382) rotate(-165.417)"/>
<use xlink:href="#stroke3_1538_2032" transform="translate(3.36958 5.25824) scale(0.000688453) rotate(156.202)"/>
<use xlink:href="#stroke3_1538_2032" transform="translate(3.192 5.15224) scale(0.000795324) rotate(-47.89)"/>
<use xlink:href="#stroke3_1538_2032" transform="translate(3.40332 4.99187) scale(0.000690172) rotate(-5.73687)"/>
<use xlink:href="#stroke3_1538_2032" transform="translate(3.85997 5.14408) scale(0.00084286) rotate(164.64)"/>
<use xlink:href="#stroke3_1538_2032" transform="translate(4.14599 4.96054) scale(0.00114545) rotate(123.535)"/>
<use xlink:href="#stroke3_1538_2032" transform="translate(3.89963 5.16014) scale(0.00103017) rotate(-91.2635)"/>
<use xlink:href="#stroke3_1538_2032" transform="translate(4.4135 5.18745) scale(0.00116016) rotate(174.408)"/>
<defs>
<g id="stroke0_1538_2032" data-figma-scatter-ref="stroke0_1538_2032_ref" data-figma-scatter="f0.51_w0.06_aj180_sj0.65_r0_s10638361477699399005_sw0.25">
</g>
<path id="stroke0_1538_2032_ref" d="M16 12C16 14.2091 14.2091 16 12 16C9.79086 16 8 14.2091 8 12C8 9.79086 9.79086 8 12 8C14.2091 8 16 9.79086 16 12Z"/>
<g id="stroke1_1538_2032" data-figma-scatter-ref="stroke1_1538_2032_ref" data-figma-scatter="f0.51_w0.06_aj180_sj0.65_r0_s8617755369197161754_sw0.25">
</g>
<path id="stroke1_1538_2032_ref" d="M12 0.5C13.0603 0.5 13.9637 1.16114 14.3271 2.09277L14.3291 2.0918C15.3961 4.82798 16.5131 5.47269 19.416 5.02832L19.4131 5.03125C19.5376 5.01215 19.665 5 19.7949 5C21.1755 5.00013 22.2949 6.11937 22.2949 7.5C22.2947 8.88041 21.1754 9.99987 19.7949 10C18.7344 10 17.8301 9.33824 17.4668 8.40625L17.4658 8.4082C16.3988 5.67193 15.2811 5.02722 12.3779 5.47168L12.3799 5.46777C12.2558 5.48671 12.1293 5.5 12 5.5C10.6193 5.5 9.5 4.38071 9.5 3C9.5 1.61929 10.6193 0.5 12 0.5Z"/>
<g id="stroke2_1538_2032" data-figma-scatter-ref="stroke2_1538_2032_ref" data-figma-scatter="f0.51_w0.06_aj180_sj0.65_r0_s877894429702934844_sw0.25">
</g>
<path id="stroke2_1538_2032_ref" d="M19.7949 14C21.1755 14.0001 22.2949 15.1203 22.2949 16.501C22.2947 17.8814 21.1754 19.0008 19.7949 19.001C19.665 19.001 19.5377 18.9869 19.4131 18.9678L19.416 18.9717C16.5132 18.5274 15.3961 19.1722 14.3291 21.9082L14.3271 21.9062C13.9639 22.8383 13.0606 23.5 12 23.5C10.6193 23.5 9.5 22.3807 9.5 21C9.5 19.6193 10.6193 18.5 12 18.5C12.129 18.5 12.2552 18.5124 12.3789 18.5312L12.3779 18.5293C15.281 18.9737 16.3988 18.3288 17.4658 15.5928C17.829 14.6606 18.7342 14 19.7949 14Z"/>
<g id="stroke3_1538_2032" data-figma-scatter-ref="stroke3_1538_2032_ref" data-figma-scatter="f0.51_w0.06_aj180_sj0.65_r0_s10609291203742916467_sw0.25">
</g>
<path id="stroke3_1538_2032_ref" d="M4.20605 4.99902C5.58677 4.99902 6.70605 6.11929 6.70605 7.5C6.70594 8.09153 6.49977 8.63445 6.15625 9.0625C4.31974 11.3549 4.3207 12.6451 6.15723 14.9375C6.50084 15.3657 6.70605 15.9093 6.70605 16.501C6.70579 17.8815 5.5866 19.001 4.20605 19.001C2.82556 19.0009 1.70632 17.8814 1.70605 16.501C1.70605 15.9091 1.91305 15.3657 2.25684 14.9375H2.25488C4.09141 12.6451 4.09141 11.3549 2.25488 9.0625H2.25684C1.91314 8.6344 1.70617 8.09169 1.70605 7.5C1.70605 6.11933 2.8254 4.99909 4.20605 4.99902Z"/>
</defs>
</svg>
